<svg width="34" height="34" viewBox="0 0 34 34" fill="none" xmlns="http://www.w3.org/2000/svg">
<path d="M4.55633 16.9965H1L16.9965 1L33 16.9965H29.4437" stroke="#BDBDBD" stroke-width="1.5" stroke-linecap="round" stroke-linejoin="round"/>
<path d="M4.55469 17.0039V29.4441C4.55469 30.3873 4.92936 31.2919 5.5963 31.9588C6.26325 32.6258 7.16781 33.0004 8.11101 33.0004H25.9065C26.8497 33.0004 27.7543 32.6258 28.4212 31.9588C29.0882 31.2919 29.4629 30.3873 29.4629 29.4441V17.0039" stroke="#BDBDBD" stroke-width="1.5" stroke-linecap="round" stroke-linejoin="round"/>
<path d="M11.668 32.9996V22.3376C11.668 21.3944 12.0426 20.4898 12.7096 19.8229C13.3765 19.1559 14.2811 18.7813 15.2243 18.7813H18.7806C19.2473 18.7812 19.7094 18.8733 20.1405 19.0521C20.5716 19.2309 20.9632 19.493 21.2929 19.8233C21.6225 20.1536 21.8839 20.5457 22.0618 20.9771C22.2398 21.4086 22.3309 21.8709 22.33 22.3376V32.9996" stroke="#BDBDBD" stroke-width="1.5" stroke-linecap="round" stroke-linejoin="round"/>
</svg>
