<svg width="23" height="21" viewBox="0 0 23 21" fill="none" xmlns="http://www.w3.org/2000/svg">
<path d="M3.33333 4.5H4.5C5.11884 4.5 5.71233 4.25417 6.14992 3.81658C6.5875 3.379 6.83333 2.78551 6.83333 2.16667C6.83333 1.85725 6.95625 1.5605 7.17504 1.34171C7.39383 1.12292 7.69058 1 8 1H15C15.3094 1 15.6062 1.12292 15.825 1.34171C16.0437 1.5605 16.1667 1.85725 16.1667 2.16667C16.1667 2.78551 16.4125 3.379 16.8501 3.81658C17.2877 4.25417 17.8812 4.5 18.5 4.5H19.6667C20.2855 4.5 20.879 4.74583 21.3166 5.18342C21.7542 5.621 22 6.2145 22 6.83333V17.3333C22 17.9522 21.7542 18.5457 21.3166 18.9832C20.879 19.4208 20.2855 19.6667 19.6667 19.6667H3.33333C2.71449 19.6667 2.121 19.4208 1.68342 18.9832C1.24583 18.5457 1 17.9522 1 17.3333V6.83333C1 6.2145 1.24583 5.621 1.68342 5.18342C2.121 4.74583 2.71449 4.5 3.33333 4.5Z" stroke="white" stroke-width="1.5" stroke-linecap="round" stroke-linejoin="round"/>
<path d="M11.5 15C13.433 15 15 13.433 15 11.5C15 9.567 13.433 8 11.5 8C9.567 8 8 9.567 8 11.5C8 13.433 9.567 15 11.5 15Z" stroke="white" stroke-width="1.5" stroke-linecap="round" stroke-linejoin="round"/>
</svg>
