<svg width="26" height="26" viewBox="0 0 26 26" fill="none" xmlns="http://www.w3.org/2000/svg">
<path d="M10.332 3.66667C10.332 2.95943 10.613 2.28115 11.1131 1.78105C11.6132 1.28095 12.2915 1 12.9987 1C13.706 1 14.3842 1.28095 14.8843 1.78105C15.3844 2.28115 15.6654 2.95943 15.6654 3.66667C17.1966 4.39071 18.5019 5.51777 19.4415 6.92707C20.381 8.33637 20.9193 9.97478 20.9987 11.6667V15.6667C21.0991 16.4956 21.3926 17.2894 21.8558 17.9842C22.319 18.6789 22.9388 19.2552 23.6654 19.6667H2.33203C3.05862 19.2552 3.67845 18.6789 4.14162 17.9842C4.60479 17.2894 4.89836 16.4956 4.9987 15.6667V11.6667C5.07812 9.97478 5.61644 8.33637 6.55597 6.92707C7.4955 5.51777 8.80083 4.39071 10.332 3.66667" stroke="#FF3E79" stroke-width="1.5" stroke-linecap="round" stroke-linejoin="round"/>
<path d="M9 19.668V21.0013C9 22.0622 9.42143 23.0796 10.1716 23.8297C10.9217 24.5799 11.9391 25.0013 13 25.0013C14.0609 25.0013 15.0783 24.5799 15.8284 23.8297C16.5786 23.0796 17 22.0622 17 21.0013V19.668" stroke="#FF3E79" stroke-width="1.5" stroke-linecap="round" stroke-linejoin="round"/>
<path d="M24.9988 5.96934C24.1242 4.06701 22.8542 2.37293 21.2734 1" stroke="#FF3E79" stroke-width="1.5" stroke-linecap="round" stroke-linejoin="round"/>
<path d="M1 5.96934C1.8738 4.06726 3.14287 2.3732 4.72267 1" stroke="#FF3E79" stroke-width="1.5" stroke-linecap="round" stroke-linejoin="round"/>
</svg>
