<svg width="22" height="22" viewBox="0 0 22 22" fill="none" xmlns="http://www.w3.org/2000/svg">
<path d="M9.35854 8.75049L1.52972 10.3056C0.898798 10.4389 0.472256 10.9721 0.472256 11.603V20.667C0.472256 21.4046 1.06764 21.9999 1.8052 21.9999H9.80286C9.55404 21.9999 9.35854 21.8044 9.35854 21.5556V21.1113H1.8052C1.56527 21.1113 1.36088 20.9158 1.36088 20.667V11.603C1.36088 11.3986 1.50306 11.212 1.70745 11.1676L9.35854 9.65689V8.75049Z" fill="#54514C" fill-opacity="0.75"/>
<path d="M4.47106 13.1135C4.22224 13.1135 4.02674 13.309 4.02674 13.5578C4.02674 13.8067 4.22224 14.0022 4.47106 14.0022H6.24831C6.49713 14.0022 6.69263 13.8067 6.69263 13.5578C6.69263 13.309 6.49713 13.1135 6.24831 13.1135H4.47106Z" fill="#54514C" fill-opacity="0.75"/>
<path d="M4.47106 15.7798C4.22224 15.7798 4.02674 15.9753 4.02674 16.2241C4.02674 16.4729 4.22224 16.6684 4.47106 16.6684H6.24831C6.49713 16.6684 6.69263 16.4729 6.69263 16.2241C6.69263 15.9753 6.49713 15.7798 6.24831 15.7798H4.47106Z" fill="#54514C" fill-opacity="0.75"/>
<path d="M4.47106 18.4456C4.22224 18.4456 4.02674 18.6411 4.02674 18.8899C4.02674 19.1387 4.22224 19.3342 4.47106 19.3342H6.24831C6.49713 19.3342 6.69263 19.1387 6.69263 18.8899C6.69263 18.6411 6.49713 18.4456 6.24831 18.4456H4.47106Z" fill="#54514C" fill-opacity="0.75"/>
<path d="M9.35856 21.5556C9.35856 21.8045 9.55406 22 9.80288 22C10.0517 22 10.2472 21.8045 10.2472 21.5556V21.1113V9.11483C10.2472 8.98154 10.185 8.85713 10.0872 8.76827C9.9806 8.68829 9.84731 8.65275 9.71401 8.67941L9.35856 8.7505V9.6569V21.1113V21.5556Z" fill="#54514C" fill-opacity="0.75"/>
<path d="M10.2471 21.1113V21.5556C10.2471 21.8045 10.0516 22 9.80279 22H13.3573C13.1085 22 12.913 21.8045 12.913 21.5556V21.1113H10.2471Z" fill="#54514C" fill-opacity="0.75"/>
<path d="M12.4686 5.11597C12.2198 5.11597 12.0243 5.31147 12.0243 5.56028C12.0243 5.8091 12.2198 6.0046 12.4686 6.0046H14.2459C14.4947 6.0046 14.6902 5.8091 14.6902 5.56028C14.6902 5.31147 14.4947 5.11597 14.2459 5.11597H12.4686Z" fill="#54514C" fill-opacity="0.75"/>
<path d="M12.0243 8.2263C12.0243 8.47511 12.2198 8.67061 12.4686 8.67061H14.2459C14.4947 8.67061 14.6902 8.47511 14.6902 8.2263C14.6902 7.97748 14.4947 7.78198 14.2459 7.78198H12.4686C12.2198 7.78198 12.0243 7.97748 12.0243 8.2263Z" fill="#54514C" fill-opacity="0.75"/>
<path d="M12.4686 10.4478C12.2198 10.4478 12.0243 10.6433 12.0243 10.8921C12.0243 11.1409 12.2198 11.3364 12.4686 11.3364H14.2459C14.4947 11.3364 14.6902 11.1409 14.6902 10.8921C14.6902 10.6433 14.4947 10.4478 14.2459 10.4478H12.4686Z" fill="#54514C" fill-opacity="0.75"/>
<path d="M12.4686 13.1135C12.2198 13.1135 12.0243 13.309 12.0243 13.5578C12.0243 13.8067 12.2198 14.0022 12.4686 14.0022H14.2459C14.4947 14.0022 14.6902 13.8067 14.6902 13.5578C14.6902 13.309 14.4947 13.1135 14.2459 13.1135H12.4686Z" fill="#54514C" fill-opacity="0.75"/>
<path d="M16.4674 13.5578C16.4674 13.8067 16.6629 14.0022 16.9117 14.0022H18.689C18.9378 14.0022 19.1333 13.8067 19.1333 13.5578C19.1333 13.309 18.9378 13.1135 18.689 13.1135H16.9117C16.6629 13.1135 16.4674 13.309 16.4674 13.5578Z" fill="#54514C" fill-opacity="0.75"/>
<path d="M16.9117 5.11597C16.6629 5.11597 16.4674 5.31147 16.4674 5.56028C16.4674 5.8091 16.6629 6.0046 16.9117 6.0046H18.689C18.9378 6.0046 19.1333 5.8091 19.1333 5.56028C19.1333 5.31147 18.9378 5.11597 18.689 5.11597H16.9117Z" fill="#54514C" fill-opacity="0.75"/>
<path d="M16.9117 7.78198C16.6629 7.78198 16.4674 7.97748 16.4674 8.2263C16.4674 8.47511 16.6629 8.67061 16.9117 8.67061H18.689C18.9378 8.67061 19.1333 8.47511 19.1333 8.2263C19.1333 7.97748 18.9378 7.78198 18.689 7.78198H16.9117Z" fill="#54514C" fill-opacity="0.75"/>
<path d="M16.9117 10.4478C16.6629 10.4478 16.4674 10.6433 16.4674 10.8921C16.4674 11.1409 16.6629 11.3364 16.9117 11.3364H18.689C18.9378 11.3364 19.1333 11.1409 19.1333 10.8921C19.1333 10.6433 18.9378 10.4478 18.689 10.4478H16.9117Z" fill="#54514C" fill-opacity="0.75"/>
<path d="M13.8017 17.1127C13.8017 16.8639 14.0061 16.6684 14.246 16.6684H16.9119C17.1607 16.6684 17.3562 16.8639 17.3562 17.1127V21.1116H18.2449V17.1127C18.2449 16.3752 17.6495 15.7798 16.9119 15.7798H14.246C13.5085 15.7798 12.9131 16.3752 12.9131 17.1127V21.1116H13.8017V17.1127Z" fill="#54514C" fill-opacity="0.75"/>
<path d="M17.3562 21.1113H13.8017H12.9131V21.5556C12.9131 21.8045 13.1086 22 13.3574 22H17.8006C18.0494 22 18.2449 21.8045 18.2449 21.5556V21.1113H17.3562Z" fill="#54514C" fill-opacity="0.75"/>
<path d="M20.2442 0.850553L10.4782 2.33456C9.82949 2.4412 9.35851 2.99215 9.35851 3.64973V8.75046L9.71397 8.67937C9.84726 8.65271 9.98056 8.68826 10.0872 8.76823C10.1849 8.8571 10.2471 8.9815 10.2471 9.1148V3.64973C10.2471 3.42758 10.4071 3.24096 10.6204 3.20542L20.3864 1.7303C20.4131 1.72141 20.4397 1.72141 20.4664 1.72141C20.573 1.72141 20.6708 1.75695 20.7507 1.82804C20.8574 1.91691 20.9107 2.03243 20.9107 2.16572V20.667C20.9107 20.9158 20.7063 21.1113 20.4664 21.1113H18.2448V21.5556C18.2448 21.8044 18.0493 21.9999 17.8005 21.9999H20.4664C21.2039 21.9999 21.7993 21.4045 21.7993 20.667V2.16572C21.7993 1.77473 21.6305 1.4015 21.3283 1.15269C21.0262 0.894984 20.6352 0.788349 20.2442 0.850553Z" fill="#54514C" fill-opacity="0.75"/>
</svg>
