<svg width="30" height="34" viewBox="0 0 30 34" fill="none" xmlns="http://www.w3.org/2000/svg">
<path d="M25.4917 4.35547H4.49623C2.56531 4.35547 1 5.92078 1 7.8517V28.8472C1 30.7781 2.56531 32.3434 4.49623 32.3434H25.4917C27.4226 32.3434 28.9879 30.7781 28.9879 28.8472V7.8517C28.9879 5.92078 27.4226 4.35547 25.4917 4.35547Z" stroke="#BDBDBD" stroke-width="2" stroke-linecap="round" stroke-linejoin="round"/>
<path d="M22.4062 1V8.00453" stroke="#BDBDBD" stroke-width="2" stroke-linecap="round" stroke-linejoin="round"/>
<path d="M8.41406 1V8.00453" stroke="#BDBDBD" stroke-width="2" stroke-linecap="round" stroke-linejoin="round"/>
<path d="M1 15.0039H29" stroke="#BDBDBD" stroke-width="2" stroke-linecap="round" stroke-linejoin="round"/>
<path d="M7 21.1132V20.5469H7.56631V21.1132H7Z" fill="#BDBDBD" stroke="#BDBDBD" stroke-width="2"/>
<path d="M14.5664 21.1132V20.5469H15.1327V21.1132H14.5664Z" fill="#BDBDBD" stroke="#BDBDBD" stroke-width="2"/>
<path d="M22.1328 21.1132V20.5469H22.6991V21.1132H22.1328Z" fill="#BDBDBD" stroke="#BDBDBD" stroke-width="2"/>
<path d="M7 26.6796V26.1133H7.56631V26.6796H7Z" fill="#BDBDBD" stroke="#BDBDBD" stroke-width="2"/>
<path d="M14.5664 26.6796V26.1133H15.1327V26.6796H14.5664Z" fill="#BDBDBD" stroke="#BDBDBD" stroke-width="2"/>
<path d="M22.1328 26.6796V26.1133H22.6991V26.6796H22.1328Z" fill="#BDBDBD" stroke="#BDBDBD" stroke-width="2"/>
</svg>
