<svg width="44" height="44" viewBox="0 0 44 44" fill="none" xmlns="http://www.w3.org/2000/svg">
<circle cx="22" cy="22" r="22" fill="#FE4335"/>
<path d="M11 15.332H32.3334" stroke="white" stroke-width="1.5" stroke-linecap="round" stroke-linejoin="round"/>
<path d="M19 20.668V28.668" stroke="white" stroke-width="1.5" stroke-linecap="round" stroke-linejoin="round"/>
<path d="M24.332 20.668V28.668" stroke="white" stroke-width="1.5" stroke-linecap="round" stroke-linejoin="round"/>
<path d="M12.332 15.332L13.6654 31.3321C13.6654 32.0393 13.9463 32.7176 14.4464 33.2177C14.9465 33.7178 15.6248 33.9987 16.332 33.9987H26.9987C27.706 33.9987 28.3843 33.7178 28.8844 33.2177C29.3845 32.7176 29.6654 32.0393 29.6654 31.3321L30.9987 15.332" stroke="white" stroke-width="1.5" stroke-linecap="round" stroke-linejoin="round"/>
<path d="M17.668 15.3333V11.3333C17.668 10.9797 17.8084 10.6406 18.0585 10.3905C18.3085 10.1405 18.6477 10 19.0013 10H24.3347C24.6883 10 25.0274 10.1405 25.2775 10.3905C25.5275 10.6406 25.668 10.9797 25.668 11.3333V15.3333" stroke="white" stroke-width="1.5" stroke-linecap="round" stroke-linejoin="round"/>
</svg>
