<svg width="186" height="170" viewBox="0 0 186 170" fill="none" xmlns="http://www.w3.org/2000/svg">
<g opacity="0.5">
<path d="M160.296 15.5981L4.44287 61.0071L8.57096 75.1755L164.424 29.7665L160.296 15.5981Z" fill="#333E57"/>
<path d="M23.0631 126.088L0.0916399 47.2455C-0.0786641 46.661 -0.00978105 46.0327 0.283125 45.499C0.576031 44.9652 1.06897 44.5697 1.65351 44.3994L153.728 0.0911539C154.312 -0.0785779 154.94 -0.00946151 155.474 0.28334C156.008 0.576141 156.403 1.0687 156.574 1.6529L176.925 71.5016L176.295 71.6852L155.944 1.83641C155.822 1.4193 155.539 1.06767 155.158 0.858556C154.777 0.649444 154.329 0.599898 153.911 0.720779L1.83697 45.029C1.41945 45.1507 1.06735 45.4332 0.858131 45.8145C0.648912 46.1957 0.59971 46.6445 0.72135 47.062L23.6928 125.904L23.0631 126.088Z" fill="#333E57"/>
<path d="M143.266 71.8261C142.805 71.8257 142.356 71.6758 141.987 71.3989C141.618 71.1221 141.348 70.7331 141.219 70.2903L137.366 57.0665C137.208 56.5237 137.272 55.9407 137.544 55.4452C137.816 54.9498 138.273 54.5824 138.816 54.4237L152.04 50.5708C152.583 50.4134 153.166 50.4776 153.661 50.7496C154.157 51.0215 154.524 51.4788 154.683 52.0213L158.535 65.2451C158.693 65.7879 158.629 66.3709 158.357 66.8664C158.085 67.3618 157.628 67.7292 157.085 67.8879L143.861 71.7408C143.668 71.7973 143.467 71.826 143.266 71.8261Z" fill="#FF3E79"/>
<path d="M22.708 47.4893C22.6684 47.3534 22.6213 47.2199 22.5669 47.0892C22.1972 46.1918 21.5089 45.4627 20.6342 45.042C19.7595 44.6213 18.7602 44.5386 17.8283 44.81C16.8965 45.0813 16.0977 45.6874 15.5856 46.5119C15.0734 47.3363 14.884 48.321 15.0538 49.2766C15.0776 49.416 15.1094 49.554 15.1489 49.6898C15.3884 50.5073 15.8862 51.2251 16.5679 51.7359C17.2495 52.2467 18.0783 52.5229 18.9301 52.5233C19.3019 52.5241 19.672 52.4711 20.0287 52.3659C21.0299 52.0733 21.8742 51.3957 22.3765 50.4815C22.8788 49.5673 22.998 48.4913 22.708 47.4893ZM19.845 51.7362C19.0101 51.9785 18.1131 51.8799 17.3508 51.4618C16.5885 51.0438 16.0231 50.3405 15.7785 49.5062C15.7402 49.3703 15.7095 49.2323 15.6866 49.093C15.5636 48.3056 15.7316 47.5004 16.1592 46.8279C16.5868 46.1554 17.2447 45.6617 18.0098 45.4391C18.775 45.2164 19.5951 45.2801 20.3167 45.6182C21.0383 45.9563 21.6121 46.5457 21.9307 47.2761C21.9901 47.4044 22.0395 47.5371 22.0784 47.673C22.3204 48.5079 22.2211 49.4048 21.8024 50.1667C21.3836 50.9285 20.6797 51.493 19.845 51.7362V51.7362Z" fill="#FF3E79"/>
<path d="M13.0558 50.2997C12.8459 49.5789 12.866 48.8106 13.1134 48.1019C13.3608 47.3931 13.8231 46.7792 14.4359 46.3456C13.8618 46.3176 13.2893 46.4272 12.7661 46.6653C12.243 46.9034 11.7843 47.263 11.4282 47.7143C11.0722 48.1655 10.8291 48.6953 10.7193 49.2595C10.6095 49.8237 10.6361 50.406 10.7969 50.9578C10.9577 51.5096 11.248 52.0151 11.6437 52.432C12.0393 52.8489 12.5289 53.1652 13.0716 53.3546C13.6143 53.544 14.1944 53.601 14.7635 53.5208C15.3327 53.4407 15.8745 53.2256 16.3437 52.8937C15.5939 52.857 14.8742 52.5875 14.2849 52.1225C13.6955 51.6576 13.2659 51.0203 13.0558 50.2997Z" fill="#FF3E79"/>
<path d="M115.002 66.553C114.932 66.302 114.813 66.0673 114.653 65.8622C114.492 65.6571 114.293 65.4857 114.066 65.3577C113.839 65.2298 113.589 65.1479 113.33 65.1166C113.072 65.0854 112.809 65.1054 112.559 65.1756L90.7862 71.2655L88.4414 71.9214H103.166L105.511 71.2655L113.628 68.9961C114.134 68.854 114.562 68.5169 114.82 68.0588C115.078 67.6007 115.143 67.0592 115.002 66.553Z" fill="#54514C" fill-opacity="0.5"/>
<path d="M99.5981 62.0041C99.4563 61.4979 99.1192 61.0688 98.661 60.8112C98.2028 60.5535 97.6611 60.4883 97.1549 60.63L64.485 69.7666C64.0285 69.8959 63.6332 70.1841 63.3705 70.5791C63.1077 70.9742 62.9947 71.4502 63.0519 71.9212H71.5096L73.8576 71.2653L98.224 64.4506C98.7304 64.308 99.1595 63.9702 99.4171 63.5116C99.6748 63.0529 99.7398 62.5107 99.5981 62.0041Z" fill="#54514C" fill-opacity="0.5"/>
<path d="M183.704 71.2644H25.3065C24.6979 71.2651 24.1144 71.5072 23.684 71.9375C23.2536 72.3679 23.0115 72.9514 23.0109 73.56V167.352C23.0115 167.961 23.2536 168.545 23.684 168.975C24.1143 169.405 24.6978 169.647 25.3065 169.648H183.704C184.313 169.647 184.897 169.405 185.327 168.975C185.757 168.545 185.999 167.961 186 167.352V73.56C185.999 72.9514 185.757 72.3679 185.327 71.9376C184.896 71.5072 184.313 71.2651 183.704 71.2644ZM185.344 167.352C185.344 167.787 185.171 168.204 184.864 168.512C184.556 168.819 184.139 168.992 183.704 168.992H25.3065C24.8716 168.992 24.4547 168.819 24.1472 168.512C23.8397 168.204 23.6669 167.787 23.6668 167.352V73.56C23.6669 73.1252 23.8398 72.7082 24.1472 72.4008C24.4547 72.0933 24.8717 71.9205 25.3065 71.9203H183.704C184.139 71.9205 184.556 72.0933 184.864 72.4008C185.171 72.7082 185.344 73.1252 185.344 73.56V167.352Z" fill="#333E57"/>
<path d="M40.7187 84.0553C39.9404 84.0553 39.1796 83.8245 38.5324 83.392C37.8852 82.9596 37.3808 82.345 37.083 81.6259C36.7851 80.9068 36.7072 80.1156 36.859 79.3522C37.0109 78.5888 37.3857 77.8876 37.936 77.3372C38.4864 76.7868 39.1876 76.412 39.951 76.2602C40.7144 76.1083 41.5057 76.1863 42.2247 76.4841C42.9438 76.782 43.5585 77.2864 43.9909 77.9336C44.4233 78.5807 44.6541 79.3416 44.6541 80.1199C44.6529 81.1633 44.2379 82.1635 43.5001 82.9013C42.7624 83.6391 41.7621 84.0541 40.7187 84.0553ZM40.7187 76.8405C40.0701 76.8405 39.4361 77.0328 38.8968 77.3931C38.3575 77.7535 37.9371 78.2657 37.6889 78.8649C37.4407 79.4642 37.3758 80.1236 37.5023 80.7597C37.6289 81.3959 37.9412 81.9802 38.3998 82.4388C38.8585 82.8975 39.4428 83.2098 40.079 83.3364C40.7151 83.4629 41.3745 83.398 41.9737 83.1497C42.573 82.9015 43.0852 82.4812 43.4455 81.9419C43.8059 81.4026 43.9982 80.7685 43.9982 80.1199C43.9972 79.2505 43.6514 78.4169 43.0366 77.8021C42.4218 77.1873 41.5882 76.8414 40.7187 76.8405Z" fill="#FF3E79"/>
<path d="M34.6019 80.1198C34.602 79.3692 34.8362 78.6372 35.272 78.026C35.7077 77.4147 36.3233 76.9546 37.0329 76.7097C36.4896 76.5222 35.9093 76.4673 35.3404 76.5496C34.7715 76.6318 34.2305 76.8487 33.7625 77.1824C33.2944 77.516 32.9129 77.9567 32.6496 78.4676C32.3864 78.9786 32.249 79.5451 32.249 80.1199C32.249 80.6946 32.3864 81.2611 32.6496 81.7721C32.9129 82.283 33.2944 82.7237 33.7625 83.0573C34.2305 83.391 34.7715 83.6079 35.3404 83.6901C35.9093 83.7724 36.4896 83.7175 37.0329 83.53C36.3233 83.2851 35.7077 82.825 35.272 82.2137C34.8362 81.6025 34.602 80.8705 34.6019 80.1198Z" fill="#FF3E79"/>
<path d="M56.6712 126.615C55.8887 126.615 55.1385 126.303 54.5852 125.75C54.0319 125.197 53.7206 124.446 53.7197 123.664V114.809C53.7197 114.027 54.0307 113.276 54.5842 112.722C55.1377 112.169 55.8884 111.858 56.6712 111.858C57.454 111.858 58.2048 112.169 58.7583 112.722C59.3118 113.276 59.6227 114.027 59.6227 114.809V123.664C59.6219 124.446 59.3106 125.197 58.7573 125.75C58.204 126.303 57.4538 126.615 56.6712 126.615Z" fill="#FF3E79"/>
<path d="M64.5419 126.615C63.7594 126.615 63.0092 126.303 62.4559 125.75C61.9026 125.197 61.5913 124.446 61.5904 123.664V114.809C61.5904 114.027 61.9014 113.276 62.4549 112.722C63.0084 112.169 63.7591 111.858 64.5419 111.858C65.3247 111.858 66.0754 112.169 66.629 112.722C67.1825 113.276 67.4934 114.027 67.4934 114.809V123.664C67.4925 124.446 67.1813 125.197 66.628 125.75C66.0747 126.303 65.3244 126.615 64.5419 126.615Z" fill="#FF3E79"/>
<path d="M72.4126 126.615C71.6301 126.615 70.8799 126.303 70.3266 125.75C69.7733 125.197 69.462 124.446 69.4611 123.664V114.809C69.4611 114.027 69.7721 113.276 70.3256 112.722C70.8791 112.169 71.6298 111.858 72.4126 111.858C73.1954 111.858 73.9461 112.169 74.4997 112.722C75.0532 113.276 75.3641 114.027 75.3641 114.809V123.664C75.3632 124.446 75.052 125.197 74.4987 125.75C73.9454 126.303 73.1951 126.615 72.4126 126.615Z" fill="#FF3E79"/>
<path d="M84.5466 126.615C83.7641 126.615 83.0139 126.303 82.4606 125.75C81.9073 125.197 81.596 124.446 81.5951 123.664V114.809C81.5951 114.027 81.9061 113.276 82.4596 112.722C83.0131 112.169 83.7638 111.858 84.5466 111.858C85.3294 111.858 86.0801 112.169 86.6336 112.722C87.1872 113.276 87.4981 114.027 87.4981 114.809V123.664C87.4972 124.446 87.186 125.197 86.6327 125.75C86.0793 126.303 85.3291 126.615 84.5466 126.615Z" fill="#FF3E79"/>
<path d="M92.4173 126.615C91.6348 126.615 90.8846 126.303 90.3313 125.75C89.778 125.197 89.4667 124.446 89.4658 123.664V114.809C89.4658 114.027 89.7768 113.276 90.3303 112.722C90.8838 112.169 91.6345 111.858 92.4173 111.858C93.2001 111.858 93.9508 112.169 94.5044 112.722C95.0579 113.276 95.3688 114.027 95.3688 114.809V123.664C95.3679 124.446 95.0567 125.197 94.5034 125.75C93.9501 126.303 93.1998 126.615 92.4173 126.615Z" fill="#FF3E79"/>
<path d="M100.288 126.615C99.5055 126.615 98.7553 126.303 98.202 125.75C97.6487 125.197 97.3374 124.446 97.3365 123.664V114.809C97.3365 114.027 97.6475 113.276 98.201 112.722C98.7545 112.169 99.5052 111.858 100.288 111.858C101.071 111.858 101.822 112.169 102.375 112.722C102.929 113.276 103.24 114.027 103.24 114.809V123.664C103.239 124.446 102.927 125.197 102.374 125.75C101.821 126.303 101.071 126.615 100.288 126.615Z" fill="#FF3E79"/>
<path d="M112.422 126.615C111.639 126.615 110.889 126.303 110.336 125.75C109.783 125.197 109.471 124.446 109.47 123.664V114.809C109.47 114.027 109.781 113.276 110.335 112.722C110.888 112.169 111.639 111.858 112.422 111.858C113.205 111.858 113.956 112.169 114.509 112.722C115.063 113.276 115.374 114.027 115.374 114.809V123.664C115.373 124.446 115.061 125.197 114.508 125.75C113.955 126.303 113.205 126.615 112.422 126.615Z" fill="#FF3E79"/>
<path d="M120.293 126.615C119.51 126.615 118.76 126.303 118.207 125.75C117.653 125.197 117.342 124.446 117.341 123.664V114.809C117.341 114.027 117.652 113.276 118.206 112.722C118.759 112.169 119.51 111.858 120.293 111.858C121.075 111.858 121.826 112.169 122.38 112.722C122.933 113.276 123.244 114.027 123.244 114.809V123.664C123.243 124.446 122.932 125.197 122.379 125.75C121.825 126.303 121.075 126.615 120.293 126.615Z" fill="#FF3E79"/>
<path d="M128.163 126.615C127.381 126.615 126.631 126.303 126.077 125.75C125.524 125.197 125.213 124.446 125.212 123.664V114.809C125.212 114.027 125.523 113.276 126.076 112.722C126.63 112.169 127.381 111.858 128.163 111.858C128.946 111.858 129.697 112.169 130.25 112.722C130.804 113.276 131.115 114.027 131.115 114.809V123.664C131.114 124.446 130.803 125.197 130.249 125.75C129.696 126.303 128.946 126.615 128.163 126.615Z" fill="#FF3E79"/>
<path d="M140.297 126.615C139.515 126.615 138.765 126.303 138.211 125.75C137.658 125.197 137.347 124.446 137.346 123.664V114.809C137.346 114.027 137.657 113.276 138.21 112.722C138.764 112.169 139.515 111.858 140.297 111.858C141.08 111.858 141.831 112.169 142.384 112.722C142.938 113.276 143.249 114.027 143.249 114.809V123.664C143.248 124.446 142.937 125.197 142.383 125.75C141.83 126.303 141.08 126.615 140.297 126.615Z" fill="#FF3E79"/>
<path d="M148.168 126.615C147.386 126.615 146.635 126.303 146.082 125.75C145.529 125.197 145.217 124.446 145.217 123.664V114.809C145.217 114.027 145.528 113.276 146.081 112.722C146.635 112.169 147.385 111.858 148.168 111.858C148.951 111.858 149.702 112.169 150.255 112.722C150.809 113.276 151.12 114.027 151.12 114.809V123.664C151.119 124.446 150.807 125.197 150.254 125.75C149.701 126.303 148.951 126.615 148.168 126.615Z" fill="#FF3E79"/>
<path d="M156.039 126.615C155.256 126.615 154.506 126.303 153.953 125.75C153.399 125.197 153.088 124.446 153.087 123.664V114.809C153.087 114.027 153.398 113.276 153.952 112.722C154.505 112.169 155.256 111.858 156.039 111.858C156.822 111.858 157.572 112.169 158.126 112.722C158.679 113.276 158.99 114.027 158.99 114.809V123.664C158.989 124.446 158.678 125.197 158.125 125.75C157.572 126.303 156.821 126.615 156.039 126.615Z" fill="#FF3E79"/>
<path d="M76.6819 159.464H34.2325C33.7065 159.464 33.202 159.256 32.8301 158.884C32.4582 158.512 32.2493 158.007 32.2493 157.481C32.2493 156.955 32.4582 156.451 32.8301 156.079C33.202 155.707 33.7065 155.498 34.2325 155.498H76.6819C77.2078 155.498 77.7123 155.707 78.0842 156.079C78.4561 156.451 78.665 156.955 78.665 157.481C78.665 158.007 78.4561 158.512 78.0842 158.884C77.7123 159.256 77.2078 159.464 76.6819 159.464Z" fill="black" fill-opacity="0.15"/>
<path d="M63.0721 150.938H47.8422C47.3162 150.938 46.8118 150.729 46.4399 150.357C46.0679 149.985 45.859 149.481 45.859 148.955C45.859 148.429 46.0679 147.924 46.4399 147.553C46.8118 147.181 47.3162 146.972 47.8422 146.972H63.0721C63.5981 146.972 64.1025 147.181 64.4744 147.553C64.8464 147.924 65.0553 148.429 65.0553 148.955C65.0553 149.481 64.8464 149.985 64.4744 150.357C64.1025 150.729 63.5981 150.938 63.0721 150.938Z" fill="black" fill-opacity="0.15"/>
<path d="M185.226 90.8694H23.5487V91.5253H185.226V90.8694Z" fill="#333E57"/>
</g>
</svg>
