<svg width="25" height="24" viewBox="0 0 25 24" fill="none" xmlns="http://www.w3.org/2000/svg">
<path d="M8.94922 12.0651C6.74537 12.0651 4.95312 10.3642 4.95312 8.27277C4.95312 6.18132 6.74537 4.48047 8.94922 4.48047C11.1531 4.48047 12.9453 6.18132 12.9453 8.27277C12.9453 10.3642 11.1531 12.0651 8.94922 12.0651ZM8.94922 5.42855C7.29683 5.42855 5.95215 6.70466 5.95215 8.27277C5.95215 9.84089 7.29683 11.117 8.94922 11.117C10.6016 11.117 11.9463 9.84089 11.9463 8.27277C11.9463 6.70466 10.6016 5.42855 8.94922 5.42855Z" fill="#54514C" fill-opacity="0.75"/>
<path d="M19.6163 23.4364C18.6432 23.4364 17.5163 23.1444 16.2216 22.5613C14.776 21.9109 14.0817 21.9327 13.6201 21.9545C13.2495 21.9659 12.8629 21.982 12.4812 21.6199C12.3474 21.4928 11.739 20.8007 12.9348 19.6659C13.5312 19.0999 14.3494 18.9368 15.0597 18.9273L10.9178 14.9966C10.643 14.7368 10.4912 14.3889 10.4922 14.0201C10.4932 13.6513 10.645 13.3052 10.9208 13.0445C11.1965 12.7838 11.5611 12.6388 11.9498 12.6378H11.9518C12.3394 12.6378 12.704 12.781 12.9788 13.0426L14.6991 14.6762C14.768 14.5453 14.8599 14.4249 14.9718 14.3197C15.3664 13.9452 15.9319 13.8295 16.4324 13.9765C16.5023 13.7888 16.6172 13.6115 16.775 13.4617C17.3165 12.9469 18.1847 12.9232 18.7541 13.3906C18.822 13.2597 18.914 13.1384 19.0278 13.0303C19.5963 12.4918 20.5184 12.489 21.0858 13.0275L23.7832 15.5873C25.4765 17.1933 25.2877 19.5218 23.3226 21.3876C23.3186 21.3914 23.3147 21.3952 23.3097 21.3999L22.1937 22.458C21.4984 23.1103 20.6433 23.4364 19.6163 23.4364ZM13.8909 21.0008C14.4363 21.0008 15.2745 21.0861 16.6502 21.7043C19.6323 23.0477 20.8411 22.3954 21.4924 21.7858L22.6173 20.7183C22.6203 20.7145 22.6243 20.7116 22.6273 20.7088C23.8182 19.5654 24.6344 17.7347 23.0859 16.2651L20.3805 13.6978C20.2037 13.5299 19.914 13.5318 19.7352 13.7006C19.5573 13.8694 19.5553 14.1433 19.7312 14.3121L19.7322 14.3131L20.4065 14.953C20.5044 15.0459 20.5524 15.1673 20.5524 15.2886C20.5524 15.41 20.5034 15.5313 20.4065 15.6242C20.2117 15.8091 19.895 15.8091 19.7002 15.6242L18.1267 14.131C17.9499 13.9632 17.6602 13.9632 17.4814 14.1339C17.3025 14.3036 17.3015 14.5776 17.4794 14.7463L18.6033 15.8129C18.7012 15.9058 18.7491 16.0272 18.7491 16.1485C18.7491 16.2699 18.7002 16.3912 18.6033 16.4841C18.4085 16.669 18.0918 16.669 17.897 16.4841L16.3235 14.9909C16.1467 14.8231 15.8579 14.825 15.6781 14.9938C15.5912 15.0763 15.5433 15.1862 15.5433 15.3019C15.5433 15.4166 15.5902 15.5247 15.6751 15.6053L16.799 16.6719C16.8969 16.7648 16.9449 16.8861 16.9449 17.0075C16.9449 17.1288 16.8959 17.2502 16.799 17.3431C16.6042 17.528 16.2875 17.528 16.0927 17.3431L12.2715 13.7177C12.1855 13.6361 12.0716 13.5906 11.9508 13.5906C11.8289 13.5916 11.714 13.6371 11.6271 13.7196C11.5402 13.802 11.4922 13.9111 11.4912 14.0267C11.4912 14.1415 11.5382 14.2495 11.6241 14.3311L16.794 19.2374C16.9559 19.39 16.9868 19.628 16.87 19.8138C16.7531 19.9987 16.5173 20.0859 16.2995 20.0271C16.2805 20.0224 14.4913 19.5351 13.6401 20.3409C13.2535 20.7088 13.1965 20.9344 13.2065 20.9847C13.2495 21.0122 13.2575 21.0216 13.5802 21.0103C13.6731 21.0046 13.776 21.0008 13.8909 21.0008ZM19.3835 13.3659H19.3935H19.3835Z" fill="#54514C" fill-opacity="0.75"/>
<path d="M8.94922 15.8567C4.54253 15.8567 0.957031 12.4541 0.957031 8.27211C0.957031 4.09015 4.54253 0.6875 8.94922 0.6875C13.3559 0.6875 16.9414 4.09015 16.9414 8.27211V9.69423C16.9414 11.0016 15.8205 12.0644 14.4438 12.0644C13.0672 12.0644 11.9463 11.0016 11.9463 9.69423V4.95384C11.9463 4.69217 12.1701 4.47981 12.4458 4.47981C12.7215 4.47981 12.9453 4.69217 12.9453 4.95384V9.69423C12.9453 10.4783 13.6177 11.1163 14.4438 11.1163C15.27 11.1163 15.9424 10.4783 15.9424 9.69423V8.27211C15.9424 4.61348 12.8054 1.63558 8.94922 1.63558C5.09299 1.63558 1.95605 4.61348 1.95605 8.27211C1.95605 11.9307 5.09299 14.9086 8.94922 14.9086C9.22495 14.9086 9.44873 15.121 9.44873 15.3827C9.44873 15.6444 9.22495 15.8567 8.94922 15.8567Z" fill="#54514C" fill-opacity="0.75"/>
</svg>
