<svg width="24" height="26" viewBox="0 0 24 26" fill="none" xmlns="http://www.w3.org/2000/svg">
<path d="M1 6.33203H22.3333" stroke="#FF3E79" stroke-width="1.5" stroke-linecap="round" stroke-linejoin="round"/>
<path d="M9 11.668V19.668" stroke="#FF3E79" stroke-width="1.5" stroke-linecap="round" stroke-linejoin="round"/>
<path d="M14.332 11.668V19.668" stroke="#FF3E79" stroke-width="1.5" stroke-linecap="round" stroke-linejoin="round"/>
<path d="M2.33203 6.33203L3.66536 22.332C3.66536 23.0393 3.94632 23.7176 4.44641 24.2176C4.94651 24.7177 5.62479 24.9987 6.33203 24.9987H16.9987C17.7059 24.9987 18.3842 24.7177 18.8843 24.2176C19.3844 23.7176 19.6654 23.0393 19.6654 22.332L20.9987 6.33203" stroke="#FF3E79" stroke-width="1.5" stroke-linecap="round" stroke-linejoin="round"/>
<path d="M7.66797 6.33333V2.33333C7.66797 1.97971 7.80844 1.64057 8.05849 1.39052C8.30854 1.14048 8.64768 1 9.0013 1H14.3346C14.6883 1 15.0274 1.14048 15.2774 1.39052C15.5275 1.64057 15.668 1.97971 15.668 2.33333V6.33333" stroke="#FF3E79" stroke-width="1.5" stroke-linecap="round" stroke-linejoin="round"/>
</svg>
