<svg width="52" height="39" viewBox="0 0 52 39" fill="none" xmlns="http://www.w3.org/2000/svg">
<path d="M1 37.1209L3.22635 30.4418C1.30217 27.596 0.606096 24.2259 1.26754 20.9581C1.92898 17.6903 3.90292 14.7472 6.82236 12.6761C9.74179 10.6049 13.4081 9.54654 17.1395 9.69783C20.8709 9.84913 24.4135 11.1998 27.1087 13.4986C29.8039 15.7974 31.4682 18.888 31.7922 22.1958C32.1162 25.5035 31.0779 28.8033 28.8702 31.4816C26.6626 34.1599 23.4359 36.0344 19.79 36.7567C16.1442 37.479 12.3273 36.9998 9.0491 35.4083L1 37.1209" stroke="#FF3E79" stroke-width="2" stroke-linecap="round" stroke-linejoin="round"/>
<path d="M16.4141 23.4219V23.439" stroke="#FF3E79" stroke-width="2" stroke-linecap="round" stroke-linejoin="round"/>
<path d="M23.8867 23.4219V23.439" stroke="#FF3E79" stroke-width="2" stroke-linecap="round" stroke-linejoin="round"/>
<path d="M9.5625 23.4219V23.439" stroke="#FF3E79" stroke-width="2" stroke-linecap="round" stroke-linejoin="round"/>
<path d="M51 28.4373L48.7737 21.7583C50.6978 18.9124 51.3939 15.5423 50.7325 12.2745C50.071 9.00674 48.0971 6.06365 45.1776 3.99247C42.2582 1.92128 38.5919 0.862948 34.8605 1.01424C31.1291 1.16553 27.5865 2.51616 24.8913 4.81499C22.1961 7.11383 21.0838 9.87425 21.0838 10.3413C28.5569 14.0778 29.024 15.479 30.4252 17.8144C31.8264 20.1497 32.7605 25.7545 30.8922 28.0898C34.5381 28.8121 39.6727 28.3162 42.9509 26.7247L51 28.4373Z" stroke="#FF3E79" stroke-width="2" stroke-linecap="round" stroke-linejoin="round"/>
<path d="M35.5859 14.7383V14.7554" stroke="#FF3E79" stroke-width="2" stroke-linecap="round" stroke-linejoin="round"/>
<path d="M42.4375 14.7383V14.7554" stroke="#FF3E79" stroke-width="2" stroke-linecap="round" stroke-linejoin="round"/>
</svg>
