<svg width="29" height="23" viewBox="0 0 29 23" fill="none" xmlns="http://www.w3.org/2000/svg">
<path d="M14.8054 8.25781C13.2647 8.25781 12.0156 9.44312 12.0156 10.9053C12.0156 12.3675 13.2646 13.5529 14.8054 13.5529C16.3461 13.5529 17.5952 12.3675 17.5952 10.9053C17.5952 9.44312 16.3462 8.25781 14.8054 8.25781ZM14.8054 12.2921C13.9983 12.2921 13.3441 11.6712 13.3441 10.9053C13.3441 10.1394 13.9983 9.51847 14.8054 9.51847C15.6125 9.51847 16.2667 10.1394 16.2667 10.9053C16.2667 11.6712 15.6125 12.2921 14.8054 12.2921Z" fill="#54514C" fill-opacity="0.75"/>
<path d="M25.9292 2.20417L7.79564 0.250107C7.09187 0.155152 6.37882 0.350129 5.83619 0.785933C5.29363 1.18518 4.94584 1.77699 4.87306 2.42484L4.54097 5.00932H3.51134C2.05002 5.00932 0.954023 6.23849 0.954023 7.62529V20.5161C0.917216 21.8385 2.01702 22.9389 3.41059 22.9739C3.44415 22.9747 3.47778 22.9749 3.51134 22.9745H21.7445C23.2058 22.9745 24.5343 21.9029 24.5343 20.5161V20.0118C24.9873 19.9287 25.4171 19.757 25.7963 19.5075C26.3344 19.0776 26.679 18.4687 26.7594 17.8056L28.2872 5.00932C28.4429 3.61932 27.3918 2.36892 25.9292 2.20417ZM23.2058 20.5161C23.2058 21.2095 22.4751 21.7138 21.7445 21.7138H3.51134C2.8513 21.7322 2.30054 21.2393 2.28115 20.6129C2.28014 20.5806 2.28058 20.5484 2.28249 20.5161V18.1838L7.43031 14.5907C8.04871 14.1402 8.91973 14.1802 9.48944 14.6853L13.1095 17.711C13.6593 18.149 14.3513 18.3939 15.069 18.4044C15.6302 18.4109 16.1822 18.2691 16.6632 17.9946L23.2059 14.4016V20.5161H23.2058ZM23.2058 12.9203L15.9657 16.9231C15.344 17.2726 14.557 17.2093 14.0061 16.7655L10.3529 13.7082C9.30585 12.8544 7.77549 12.802 6.6664 13.5821L2.28249 16.6078V7.62529C2.28249 6.93189 2.78068 6.27004 3.51134 6.27004H21.7445C22.5251 6.30075 23.1555 6.88544 23.2058 7.62529V12.9203ZM26.96 4.83914C26.9596 4.8433 26.9592 4.84753 26.9587 4.85169L25.3977 17.6479C25.4004 17.9797 25.241 18.294 24.966 18.4989C24.8331 18.625 24.5342 18.688 24.5342 18.7511V7.62529C24.4818 6.18945 23.2579 5.04184 21.7444 5.00932H5.86937L6.16827 2.55093C6.23312 2.23258 6.4085 1.9441 6.66647 1.73144C6.95774 1.54033 7.30991 1.45122 7.66285 1.47927L25.7632 3.46489C26.4935 3.5307 27.0294 4.14598 26.96 4.83914Z" fill="#54514C" fill-opacity="0.75"/>
</svg>
