<svg width="25" height="24" viewBox="0 0 25 24" fill="none" xmlns="http://www.w3.org/2000/svg">
<path d="M18.125 16.7969H19.5295V20.209H18.125V16.7969Z" fill="#54514C" fill-opacity="0.75"/>
<path d="M18.8239 15.911C19.1913 15.911 19.5432 15.6045 19.5262 15.2446C19.5092 14.8835 19.2176 14.5781 18.8239 14.5781C18.4566 14.5781 18.1047 14.8846 18.1217 15.2446C18.1387 15.6057 18.4303 15.911 18.8239 15.911Z" fill="#54514C" fill-opacity="0.75"/>
<path d="M20.0631 11.9305V0.59375H4.04347C2.34161 0.59375 0.957031 1.86907 0.957031 3.48414V20.499H0.971872C1.12787 22.0912 2.54297 23.3419 4.26071 23.3419H18.8324C22.1933 23.3419 24.9276 20.7857 24.9276 17.5962C24.9276 14.8068 22.8361 12.4722 20.0631 11.9305ZM18.6564 11.8145C15.5618 11.8983 13.0379 14.1817 12.7627 17.0714H6.60537V1.89008H18.6564V11.8145ZM4.04347 1.89008H5.1986V17.0714H4.26071C3.55512 17.0714 2.90103 17.2832 2.36376 17.6421V3.48414C2.36376 2.60514 3.11728 1.89008 4.04347 1.89008ZM4.26071 22.0069C3.21471 22.0069 2.36376 21.1993 2.36376 20.2067C2.36376 19.214 3.21471 18.4065 4.26071 18.4065H12.7974C12.8559 18.8008 12.9563 19.1826 13.0945 19.5474H4.52181V20.8824H13.8194C14.1246 21.3005 14.4863 21.6786 14.8939 22.0069H4.26071V22.0069ZM18.8325 22.0456C16.2472 22.0456 14.1441 20.0496 14.1441 17.5962C14.1441 15.1429 16.2472 13.1469 18.8325 13.1469C21.4177 13.1469 23.5209 15.1429 23.5209 17.5962C23.5209 20.0496 21.4176 22.0456 18.8325 22.0456Z" fill="#54514C" fill-opacity="0.75"/>
<path d="M10.3594 4.48438H15.0674V5.81936H10.3594V4.48438Z" fill="#54514C" fill-opacity="0.75"/>
<path d="M8.76953 7.38281H16.6581V8.7178H8.76953V7.38281Z" fill="#54514C" fill-opacity="0.75"/>
</svg>
