<svg width="25" height="24" viewBox="0 0 25 24" fill="none" xmlns="http://www.w3.org/2000/svg">
<path d="M24.685 0.895989C24.536 0.837602 24.3638 0.869449 24.2495 0.978261L20.1374 4.8807V2.00458C20.1374 1.7953 19.9588 1.62545 19.7379 1.62545H3.35799C2.03602 1.62545 0.960938 2.6457 0.960938 3.90026V21.3405C0.960938 22.5951 2.03602 23.6153 3.35799 23.6153H19.7379C19.9588 23.6153 20.1374 23.4455 20.1374 23.2362V12.7773L22.0063 11.0037C23.8928 9.21346 24.9315 6.83325 24.9315 4.30176V1.24631C24.9315 1.09314 24.8344 0.954755 24.685 0.895989ZM19.3384 22.857H3.35799C2.47668 22.857 1.75996 22.1769 1.75996 21.3405C1.75996 20.5041 2.47668 19.824 3.35799 19.824H19.3384V22.857ZM19.3384 19.0657H3.35799C2.74355 19.0657 2.18463 19.2879 1.75996 19.6496V3.90026C1.75996 3.06389 2.47668 2.38372 3.35799 2.38372H19.3384V5.63897L13.8623 10.8358C13.7872 10.9067 13.7452 11.0034 13.7452 11.1038V14.3591L11.4652 16.5228L12.0301 17.0589L14.3101 14.8952H17.7403C17.8466 14.8952 17.9481 14.8554 18.0228 14.7841L19.3384 13.5356V19.0657ZM24.1325 4.30176C24.1325 6.63117 23.1764 8.82068 21.4414 10.4676L17.5749 14.1369H15.1092L21.6184 7.95966L21.0535 7.42357L14.5443 13.6008V11.2608L24.1325 2.16154V4.30176Z" fill="#54514C" fill-opacity="0.75"/>
<path d="M10.5498 11.1061C12.7527 11.1061 14.5449 9.40535 14.5449 7.31479C14.5449 5.22424 12.7527 3.52344 10.5498 3.52344C8.34689 3.52344 6.55469 5.22424 6.55469 7.31479C6.55469 9.40535 8.34689 11.1061 10.5498 11.1061ZM8.58459 9.70183C8.72282 8.77712 9.54741 8.07306 10.5498 8.07306C11.5521 8.07306 12.3767 8.77712 12.515 9.70183C11.972 10.1052 11.2909 10.3479 10.5498 10.3479C9.80869 10.3479 9.12753 10.1052 8.58459 9.70183ZM9.75076 6.55652C9.75076 6.13834 10.1091 5.79825 10.5498 5.79825C10.9904 5.79825 11.3488 6.13834 11.3488 6.55652C11.3488 6.97471 10.9904 7.31479 10.5498 7.31479C10.1091 7.31479 9.75076 6.97471 9.75076 6.55652ZM10.5498 4.28171C12.312 4.28171 13.7459 5.64243 13.7459 7.31479C13.7459 7.95894 13.5317 8.5557 13.1694 9.04744C12.9141 8.39002 12.3935 7.85999 11.7331 7.56654C11.988 7.29773 12.1478 6.94589 12.1478 6.55652C12.1478 5.72015 11.4311 5.03998 10.5498 5.03998C9.66846 5.03998 8.95174 5.72015 8.95174 6.55652C8.95174 6.94589 9.11155 7.29773 9.36643 7.56654C8.70604 7.85999 8.18548 8.39002 7.9302 9.04744C7.56784 8.5557 7.35371 7.95894 7.35371 7.31479C7.35371 5.64243 8.78754 4.28171 10.5498 4.28171Z" fill="#54514C" fill-opacity="0.75"/>
<path d="M6.95312 16.4102H10.9482V17.1684H6.95312V16.4102Z" fill="#54514C" fill-opacity="0.75"/>
<path d="M6.95312 14.5156H12.1467V15.2739H6.95312V14.5156Z" fill="#54514C" fill-opacity="0.75"/>
<path d="M6.95312 12.6172H12.9458V13.3755H6.95312V12.6172Z" fill="#54514C" fill-opacity="0.75"/>
</svg>
