<svg width="187" height="150" viewBox="0 0 187 150" fill="none" xmlns="http://www.w3.org/2000/svg">
<path d="M52.3861 99.745C64.0468 99.745 73.4997 90.2922 73.4997 78.6314C73.4997 66.9707 64.0468 57.5178 52.3861 57.5178C40.7254 57.5178 31.2725 66.9707 31.2725 78.6314C31.2725 90.2922 40.7254 99.745 52.3861 99.745Z" fill="#E6E6E6"/>
<path d="M46.6815 109.463L51.8752 112.681V90.9265L46.0537 87.3191C45.5724 87.0209 45.2208 86.5527 45.0684 86.0074C45.6245 85.9012 46.2003 86.0078 46.6816 86.306L51.8752 89.5243V81.0885C51.8752 79.4566 52.0754 77.8308 52.4712 76.2476C52.867 77.8308 53.0671 79.4566 53.0671 81.0885V94.8574L60.7292 90.1094C61.341 89.7303 62.0489 89.535 62.7686 89.5468C62.4588 90.1965 61.9689 90.7434 61.357 91.1225L53.0671 96.2595V147.708H51.8752V114.083L46.0537 110.476C45.5724 110.178 45.2208 109.71 45.0684 109.164C45.6245 109.058 46.2003 109.165 46.6815 109.463Z" fill="#CCCCCC"/>
<path d="M21.1136 101.538C32.7744 101.538 42.2272 92.0849 42.2272 80.4242C42.2272 68.7634 32.7744 59.3105 21.1136 59.3105C9.45289 59.3105 0 68.7634 0 80.4242C0 92.0849 9.45289 101.538 21.1136 101.538Z" fill="#E6E6E6"/>
<path d="M26.8185 111.256L21.6248 114.474V92.7193L27.4463 89.1119C27.9275 88.8136 28.2792 88.3455 28.4316 87.8002C27.8755 87.6939 27.2997 87.8005 26.8184 88.0987L21.6248 91.3171V82.8812C21.6248 81.2493 21.4246 79.6235 21.0288 78.0403C20.633 79.6235 20.4329 81.2493 20.4329 82.8812V96.6501L12.7708 91.9021C12.159 91.523 11.4511 91.3277 10.7314 91.3395C11.0412 91.9892 11.5312 92.5362 12.143 92.9153L20.4329 98.0523V147.821H21.6248V115.876L27.4463 112.269C27.9275 111.971 28.2792 111.502 28.4316 110.957C27.8755 110.851 27.2997 110.957 26.8185 111.256Z" fill="#CCCCCC"/>
<path d="M36.4509 72.7046C56.5278 72.7046 72.8032 56.4291 72.8032 36.3523C72.8032 16.2755 56.5278 0 36.4509 0C16.3741 0 0.0986328 16.2755 0.0986328 36.3523C0.0986328 56.4291 16.3741 72.7046 36.4509 72.7046Z" fill="#E6E6E6"/>
<path d="M46.2729 89.4364L37.3308 94.9776V57.5215L47.3539 51.3105C48.1825 50.797 48.7881 49.991 49.0505 49.0521L49.0505 49.0521H49.0505C48.0929 48.8692 47.1016 49.0526 46.273 49.5661L37.3308 55.1073V40.5829C37.3308 37.7731 36.9862 34.974 36.3047 32.248C35.6232 34.974 35.2787 37.7731 35.2787 40.5829V64.2894L22.0864 56.1146C21.0331 55.4619 19.8143 55.1256 18.5752 55.1459C19.1085 56.2645 19.9521 57.2062 21.0055 57.859L35.2787 66.7036V147.901H37.3308V97.3918L47.3539 91.1808C48.1826 90.6673 48.7881 89.8612 49.0505 88.9224L49.0505 88.9224H49.0505C48.0929 88.7394 47.1016 88.9229 46.2729 89.4364Z" fill="#CCCCCC"/>
<path d="M186.1 147.708H14.498V148.142H186.1V147.708Z" fill="#333E57"/>
<path d="M141.905 65.5852L133.389 70.5024L138.306 79.0193L146.823 74.1021L141.905 65.5852Z" fill="#FF6584"/>
<path d="M142.014 80.7944L136.88 71.9013L145.773 66.7668L150.908 75.6601L142.014 80.7944ZM137.473 72.0604L142.173 80.2009L150.314 75.501L145.614 67.3604L137.473 72.0604Z" fill="#333E57"/>
<path d="M134.046 104.692C136.325 104.692 138.173 102.844 138.173 100.565C138.173 98.2853 136.325 96.4375 134.046 96.4375C131.767 96.4375 129.919 98.2853 129.919 100.565C129.919 102.844 131.767 104.692 134.046 104.692Z" fill="#D0CDE1"/>
<path d="M137.088 104.909C136.228 104.909 135.388 104.654 134.674 104.177C133.959 103.7 133.403 103.021 133.074 102.227C132.745 101.434 132.659 100.56 132.827 99.7173C132.994 98.8746 133.408 98.1005 134.016 97.4929C134.623 96.8853 135.397 96.4716 136.24 96.3039C137.083 96.1363 137.956 96.2223 138.75 96.5512C139.544 96.88 140.222 97.4368 140.7 98.1512C141.177 98.8657 141.432 99.7056 141.432 100.565C141.432 101.717 140.974 102.822 140.159 103.637C139.345 104.451 138.24 104.909 137.088 104.909ZM137.088 96.6549C136.314 96.6549 135.558 96.8842 134.915 97.3138C134.272 97.7435 133.771 98.3541 133.475 99.0686C133.179 99.783 133.102 100.569 133.253 101.328C133.404 102.086 133.776 102.783 134.323 103.33C134.87 103.876 135.566 104.249 136.325 104.4C137.083 104.55 137.869 104.473 138.584 104.177C139.298 103.881 139.909 103.38 140.338 102.737C140.768 102.094 140.997 101.338 140.997 100.565C140.997 99.5278 140.585 98.5333 139.852 97.8001C139.119 97.0668 138.124 96.6549 137.088 96.6549Z" fill="#333E57"/>
<path d="M160.083 148.696H120.115C119.625 148.695 119.156 148.5 118.81 148.154C118.464 147.808 118.269 147.339 118.269 146.849V109.705C118.269 109.216 118.464 108.746 118.81 108.4C119.156 108.054 119.625 107.859 120.115 107.859H160.083C160.572 107.859 161.042 108.054 161.388 108.4C161.734 108.746 161.929 109.216 161.929 109.705V146.849C161.929 147.339 161.734 147.808 161.388 148.154C161.042 148.5 160.572 148.695 160.083 148.696Z" fill="#FF3E79"/>
<path d="M142.922 150H137.274C136.785 149.999 136.315 149.805 135.969 149.458C135.623 149.112 135.428 148.643 135.428 148.154V108.602C135.428 108.112 135.623 107.643 135.969 107.297C136.315 106.951 136.785 106.756 137.274 106.755H142.922C143.411 106.756 143.881 106.951 144.227 107.297C144.573 107.643 144.768 108.112 144.768 108.602V148.154C144.768 148.643 144.573 149.112 144.227 149.458C143.881 149.805 143.411 149.999 142.922 150Z" fill="#333E57"/>
<path d="M170.701 104.182C170.468 108.014 165.292 110.816 165.292 110.816C165.292 110.816 160.494 107.406 160.728 103.574C160.961 99.7426 166.138 96.9402 166.138 96.9402C166.138 96.9402 170.935 100.35 170.701 104.182Z" fill="#333E57"/>
<path d="M170.936 116.138C167.104 115.916 164.285 110.749 164.285 110.749C164.285 110.749 167.68 105.941 171.513 106.162C175.345 106.384 178.164 111.551 178.164 111.551C178.164 111.551 174.769 116.359 170.936 116.138Z" fill="#333E57"/>
<path opacity="0.1" d="M161.821 112.403V126.583L147.717 107.968H158.46L161.821 112.403Z" fill="black"/>
<path d="M173.794 136.676C173.508 136.677 173.227 136.611 172.971 136.484C172.715 136.357 172.493 136.173 172.32 135.945L142.936 97.1632C142.79 96.97 142.683 96.7498 142.622 96.5152C142.56 96.2806 142.546 96.0362 142.579 95.796C142.612 95.5559 142.692 95.3245 142.815 95.1153C142.937 94.9061 143.1 94.723 143.293 94.5766L147.621 91.2971C147.815 91.1506 148.035 91.0437 148.269 90.9824C148.504 90.9211 148.748 90.9065 148.988 90.9397C149.229 90.9728 149.46 91.0529 149.669 91.1755C149.878 91.298 150.061 91.4606 150.208 91.6539L179.592 130.436C179.738 130.629 179.845 130.849 179.906 131.084C179.968 131.319 179.982 131.563 179.949 131.803C179.916 132.043 179.836 132.275 179.713 132.484C179.591 132.693 179.428 132.876 179.235 133.023L174.907 136.302C174.587 136.545 174.196 136.676 173.794 136.676Z" fill="#FF3E79"/>
<path d="M162.033 106.541L154.588 112.182L160.229 119.626L167.673 113.986L162.033 106.541Z" fill="#333E57"/>
<path d="M123.735 78.1706L121.189 87.6699L130.689 90.2152L133.234 80.716L123.735 78.1706Z" fill="#D0CDE1"/>
<path d="M126.659 91.6353L116.74 88.9776L119.398 79.0586L129.317 81.7163L126.659 91.6353ZM117.272 88.6705L126.352 91.1033L128.785 82.0235L119.705 79.5906L117.272 88.6705Z" fill="#333E57"/>
<path d="M84.8773 114.691C85.1383 114.441 85.3413 114.136 85.472 113.799C85.6027 113.462 85.6579 113.101 85.6338 112.74C85.6097 112.379 85.5068 112.029 85.3323 111.712C85.1579 111.395 84.9162 111.121 84.6242 110.908L80.6352 78.7532L75.4814 80.2856L81.0454 111.578C80.72 112.092 80.5946 112.708 80.6929 113.308C80.7911 113.909 81.1063 114.452 81.5786 114.836C82.0509 115.22 82.6476 115.417 83.2556 115.39C83.8635 115.363 84.4405 115.114 84.8773 114.691Z" fill="#FFB8B8"/>
<path d="M89.6543 145.425H92.6686L94.1033 133.798H89.6543V145.425Z" fill="#FFB8B8"/>
<path d="M98.4824 148.224H89.0088V144.563H95.157C96.039 144.563 96.8848 144.914 97.5084 145.537C98.1321 146.161 98.4824 147.007 98.4824 147.889V148.224Z" fill="#333E57"/>
<path d="M68.8096 140.73L71.6349 141.781L77.0328 131.384L72.8631 129.833L68.8096 140.73Z" fill="#FFB8B8"/>
<path d="M76.1084 146.431L67.2292 143.128L68.5052 139.697L74.2677 141.841C75.0943 142.148 75.7649 142.771 76.132 143.573C76.4991 144.375 76.5326 145.29 76.2251 146.117L76.1084 146.431L76.1084 146.431Z" fill="#333E57"/>
<path d="M84.2474 70.4059C87.3951 70.4059 89.9469 67.8541 89.9469 64.7064C89.9469 61.5586 87.3951 59.0068 84.2474 59.0068C81.0996 59.0068 78.5479 61.5586 78.5479 64.7064C78.5479 67.8541 81.0996 70.4059 84.2474 70.4059Z" fill="#FFB8B8"/>
<path d="M75.3331 79.3343C75.1546 74.0845 80.672 70.4426 85.3142 72.9006C85.9057 73.2138 92.0127 78.4022 92.2428 81.6243C92.473 84.8464 92.9333 90.1398 92.9333 90.1398L99.3775 138.241L85.5685 137.551L87.2362 123.519L78.2604 137.788L67.3867 134.328L80.7354 95.8936C80.7354 95.8936 75.6035 87.2901 75.3331 79.3343Z" fill="#333E57"/>
<path d="M75.4409 81.1619L76.3276 92.6894C76.3369 92.8097 76.3912 92.9222 76.4798 93.0042C76.5684 93.0862 76.6847 93.1318 76.8054 93.1318H80.707C80.7858 93.1318 80.8634 93.1124 80.933 93.0752C81.0025 93.038 81.0618 92.9842 81.1055 92.9186C81.1493 92.8531 81.1762 92.7777 81.1839 92.6992C81.1916 92.6208 81.1798 92.5416 81.1495 92.4688L76.3612 80.9414C76.3175 80.8361 76.2376 80.7499 76.1361 80.6982C76.0345 80.6464 75.9178 80.6326 75.807 80.6592C75.6961 80.6858 75.5984 80.751 75.5313 80.8431C75.4642 80.9353 75.4321 81.0483 75.4409 81.1619Z" fill="#333E57"/>
<path d="M95.4778 112.693C95.7077 112.414 95.8737 112.089 95.9641 111.739C96.0545 111.389 96.0671 111.023 96.0009 110.668C95.9347 110.312 95.7914 109.976 95.5811 109.682C95.3708 109.388 95.0987 109.144 94.7837 108.966L87.0591 77.4993L82.1201 79.6243L91.3079 110.05C91.045 110.599 90.9925 111.225 91.1604 111.81C91.3282 112.395 91.7049 112.898 92.2188 113.224C92.7328 113.55 93.3485 113.676 93.9491 113.578C94.5498 113.48 95.0937 113.165 95.4778 112.693Z" fill="#FFB8B8"/>
<path d="M82.8059 74.7199C82.8059 74.7199 81.1948 77.942 82.8059 83.6957C84.4169 89.4495 85.5677 94.2826 85.5677 94.2826C85.5677 94.2826 89.25 91.9811 90.8611 92.6716C92.4721 93.362 88.3126 77.3336 88.3126 77.3336C88.3126 77.3336 85.7978 71.9581 82.8059 74.7199Z" fill="#333E57"/>
<path d="M85.5846 65.5958C85.6615 64.4132 87.1535 64.3727 88.3386 64.3615C89.5237 64.3503 90.9405 64.3926 91.6111 63.4154C92.0542 62.7696 91.9696 61.8731 91.6035 61.1807C91.2374 60.4883 90.6352 59.9558 90.0427 59.4435C88.5132 58.1209 86.9369 56.8088 85.1006 55.9623C83.2643 55.1157 81.1124 54.7737 79.2079 55.4532C76.8685 56.288 73.706 60.5852 73.4329 63.0541C73.1598 65.5229 74.1464 68.0397 75.8096 69.8846C77.4728 71.7295 81.2796 70.9852 83.6752 71.6415C82.2188 69.5802 83.1788 65.8347 85.512 64.8721L85.5846 65.5958Z" fill="#333E57"/>
</svg>
