<svg width="23" height="26" viewBox="0 0 23 26" fill="none" xmlns="http://www.w3.org/2000/svg">
<path d="M11.3873 15.2824C13.5385 15.2824 15.2824 13.5385 15.2824 11.3873C15.2824 9.23608 13.5385 7.49219 11.3873 7.49219C9.23608 7.49219 7.49219 9.23608 7.49219 11.3873C7.49219 13.5385 9.23608 15.2824 11.3873 15.2824Z" stroke="#54514C" stroke-width="1.5" stroke-linecap="round" stroke-linejoin="round"/>
<path d="M18.7318 18.7314L13.2228 24.2404C12.7359 24.7268 12.0758 25 11.3876 25C10.6993 25 10.0392 24.7268 9.55234 24.2404L4.04207 18.7314C2.58949 17.2787 1.60029 15.428 1.19955 13.4131C0.798809 11.3983 1.00454 9.30983 1.79071 7.4119C2.57689 5.51397 3.90821 3.89178 5.61632 2.75047C7.32443 1.60917 9.33261 1 11.3869 1C13.4412 1 15.4494 1.60917 17.1575 2.75047C18.8656 3.89178 20.197 5.51397 20.9831 7.4119C21.7693 9.30983 21.975 11.3983 21.5743 13.4131C21.1736 15.428 20.1844 17.2787 18.7318 18.7314V18.7314Z" stroke="#54514C" stroke-width="1.5" stroke-linecap="round" stroke-linejoin="round"/>
</svg>
