<svg width="26" height="23" viewBox="0 0 26 23" fill="none" xmlns="http://www.w3.org/2000/svg">
<path d="M15.6096 6.50436V3.97679C15.6096 3.30644 15.329 2.66354 14.8295 2.18953C14.33 1.71552 13.6526 1.44922 12.9462 1.44922H3.62433C2.91796 1.44922 2.24051 1.71552 1.74103 2.18953C1.24154 2.66354 0.960938 3.30644 0.960938 3.97679V19.1422C0.960938 19.8126 1.24154 20.4555 1.74103 20.9295C2.24051 21.4035 2.91796 21.6698 3.62433 21.6698H12.9462C13.6526 21.6698 14.33 21.4035 14.8295 20.9295C15.329 20.4555 15.6096 19.8126 15.6096 19.1422V16.6146" stroke="#FF3E79" stroke-width="1.5" stroke-linecap="round" stroke-linejoin="round"/>
<path d="M24.9289 11.5609H6.28516H14.3964H24.9289ZM24.9289 11.5609L20.9338 7.76953M24.9289 11.5609L20.9338 15.3522" stroke="#FF3E79" stroke-width="1.5" stroke-linecap="round" stroke-linejoin="round"/>
</svg>
