<svg width="50" height="50" viewBox="0 0 50 50" fill="none" xmlns="http://www.w3.org/2000/svg">
<rect x="0.5" y="0.5" width="49" height="49" rx="9.5" fill="white" stroke="#FF3E79"/>
<path d="M34.3889 22.7574V15.7778C34.3889 14.2458 33.1431 13 31.6111 13H10.7777C9.24577 13 8 14.2458 8 15.7778V29.6667C8 31.1986 9.24577 32.4445 10.7778 32.4445H26.3517C27.2616 35.6458 30.2053 38 33.6945 38C35.0372 38 36.3576 37.6467 37.5146 36.9773C37.8462 36.7854 37.9602 36.3609 37.7675 36.0286C37.5756 35.6963 37.1504 35.5816 36.8187 35.7757C35.8734 36.3223 34.793 36.6111 33.6944 36.6111C30.2479 36.6111 27.4444 33.8076 27.4444 30.3611C27.4444 26.9147 30.248 24.1111 33.6944 24.1111C37.1408 24.1111 39.9444 26.9147 39.9444 30.3611V31.0556C39.9444 31.8212 39.3212 32.4445 38.5555 32.4445C37.7899 32.4445 37.1667 31.8212 37.1667 31.0556V28.2778C37.1667 27.8939 36.8561 27.5833 36.4722 27.5833C36.2854 27.5833 36.1176 27.6589 35.9929 27.7786C35.3791 27.2317 34.5792 26.8889 33.6944 26.8889C31.7799 26.8889 30.2222 28.4466 30.2222 30.3611C30.2222 32.2755 31.7799 33.8333 33.6945 33.8333C34.7294 33.8333 35.6495 33.3691 36.2863 32.6483C36.7893 33.363 37.617 33.8333 38.5556 33.8333C40.0876 33.8333 41.3333 32.5876 41.3333 31.0555V30.3611C41.3333 26.3834 38.2763 23.1099 34.3889 22.7574ZM10.7778 14.3889H31.6111C31.64 14.3889 31.6643 14.4036 31.6928 14.4054L21.7655 22.554C21.4122 22.7765 20.9001 22.7303 20.6702 22.5893L10.697 14.4053C10.7252 14.4036 10.7492 14.3889 10.7778 14.3889ZM33 22.7574C29.1126 23.1099 26.0555 26.3834 26.0555 30.3611C26.0555 30.5955 26.0699 30.8265 26.0907 31.0556H10.7778C10.0122 31.0556 9.38893 30.4324 9.38893 29.6667V15.7778C9.38893 15.5811 9.43236 15.3954 9.50645 15.2257L19.8504 23.7083C20.2546 23.9721 20.7191 24.1112 21.1945 24.1112C21.6516 24.1112 22.0985 23.9824 22.4919 23.7382C22.5312 23.7172 22.5685 23.6921 22.6038 23.663L32.8824 15.2256C32.9566 15.3954 33.0001 15.5811 33.0001 15.7779V22.7574H33ZM33.6945 32.4445C32.5456 32.4445 31.6111 31.51 31.6111 30.3611C31.6111 29.2123 32.5456 28.2778 33.6945 28.2778C34.8433 28.2778 35.7778 29.2123 35.7778 30.3611C35.7778 31.51 34.8433 32.4445 33.6945 32.4445Z" fill="#FF3E79"/>
</svg>
