<svg width="50" height="50" viewBox="0 0 50 50" fill="none" xmlns="http://www.w3.org/2000/svg">
<rect x="0.5" y="0.5" width="49" height="49" rx="9.5" fill="white" stroke="#FF3E79"/>
<path d="M17.6564 37C17.2921 37 16.9293 36.8997 16.6062 36.6998C16.0125 36.333 15.6583 35.6973 15.6583 34.9992V32.0695C13.5676 29.4208 12.6641 26.113 13.1122 22.7187C13.8305 17.2729 18.3064 12.8093 23.7542 12.106C27.5914 11.6103 31.358 12.868 34.0924 15.5547C36.827 18.2414 38.1501 21.9827 37.7232 25.8197C37.1047 31.3766 32.6175 35.9481 27.0543 36.6902C24.8364 36.9844 22.5934 36.6773 20.5356 35.7959L18.5517 36.7871C18.2675 36.929 17.9612 37 17.6564 37ZM23.9808 13.8637C19.3158 14.4658 15.4834 18.2874 14.8679 22.9505C14.4713 25.9582 15.3083 28.8844 17.2252 31.1889C17.3573 31.348 17.4296 31.5486 17.4296 31.7554V34.9992C17.4296 35.1037 17.4886 35.1617 17.5374 35.193C17.5876 35.2231 17.6667 35.2491 17.7598 35.2023L20.1194 34.0234C20.3608 33.9023 20.6462 33.8981 20.8918 34.0139C22.7483 34.8849 24.7973 35.2033 26.8197 34.9343C31.5877 34.2984 35.4325 30.3826 35.9628 25.6242C36.3292 22.3312 35.1947 19.1211 32.8505 16.8185C30.5068 14.515 27.274 13.4372 23.9808 13.8637ZM23.8675 12.9848H23.8761H23.8675Z" fill="#FF3E79"/>
<path d="M19.2451 27.2022L23.3112 21.4151C23.4805 21.1187 23.8712 21.038 24.1441 21.2427L26.868 23.2854C27.0526 23.4239 27.3025 23.4367 27.5003 23.3181L30.8172 20.9735C31.3039 20.6815 31.8702 21.206 31.6165 21.7138L28.3328 27.3952C28.185 27.6908 27.8169 27.798 27.5335 27.6279L23.8971 25.4461C23.7308 25.3463 23.525 25.3383 23.3514 25.4251L19.9912 27.9909C19.4894 28.2421 18.9666 27.6895 19.2451 27.2022Z" fill="#FF3E79"/>
</svg>
