<svg width="27" height="25" viewBox="0 0 27 25" fill="none" xmlns="http://www.w3.org/2000/svg">
<path d="M23.7732 18.1119V22.3772C23.7732 22.7542 23.6153 23.1159 23.3344 23.3825C23.0534 23.6491 22.6724 23.7989 22.275 23.7989H4.2971C3.50243 23.7989 2.7403 23.4993 2.17838 22.9661C1.61646 22.4328 1.30078 21.7095 1.30078 20.9554V3.8943M20.7769 6.73782V2.47254C20.7769 2.09547 20.619 1.73384 20.3381 1.4672C20.0571 1.20057 19.676 1.05078 19.2787 1.05078H4.2971C3.50243 1.05078 2.7403 1.35037 2.17838 1.88363C1.61646 2.41689 1.30078 3.14015 1.30078 3.8943C1.30078 4.64845 1.61646 5.37171 2.17838 5.90497C2.7403 6.43823 3.50243 6.73782 4.2971 6.73782H22.275C22.6724 6.73782 23.0534 6.88761 23.3344 7.15424C23.6153 7.42087 23.7732 7.7825 23.7732 8.15957V12.4248L20.7769 6.73782Z" stroke="#54514C" stroke-opacity="0.75" stroke-width="1.5" stroke-linecap="round" stroke-linejoin="round"/>
<path d="M25.2702 12.4258V18.1128H19.2776C18.4829 18.1128 17.7208 17.8132 17.1589 17.28C16.5969 16.7467 16.2812 16.0234 16.2812 15.2693C16.2812 14.5152 16.5969 13.7919 17.1589 13.2586C17.7208 12.7254 18.4829 12.4258 19.2776 12.4258H25.2702Z" stroke="#54514C" stroke-opacity="0.75" stroke-width="1.5" stroke-linecap="round" stroke-linejoin="round"/>
</svg>
