<svg width="44" height="44" viewBox="0 0 44 44" fill="none" xmlns="http://www.w3.org/2000/svg">
<circle cx="22" cy="22" r="22" fill="#FF3E79"/>
<path d="M33 21.9167C33.004 23.4565 32.6442 24.9755 31.95 26.35C31.1268 27.997 29.8613 29.3824 28.2953 30.3508C26.7293 31.3193 24.9246 31.8326 23.0833 31.8333C21.5435 31.8374 20.0245 31.4776 18.65 30.7833L12 33L14.2167 26.35C13.5224 24.9755 13.1627 23.4565 13.1667 21.9167C13.1674 20.0754 13.6807 18.2707 14.6492 16.7047C15.6176 15.1387 17.003 13.8732 18.65 13.05C20.0245 12.3558 21.5435 11.996 23.0833 12H23.6666C26.0984 12.1342 28.3952 13.1606 30.1173 14.8827C31.8394 16.6048 32.8658 18.9016 33 21.3334V21.9167Z" stroke="white" stroke-width="1.5" stroke-linecap="round" stroke-linejoin="round"/>
</svg>
