<svg width="49" height="49" viewBox="0 0 49 49" fill="none" xmlns="http://www.w3.org/2000/svg">
<g filter="url(#filter0_d)">
<circle cx="23.5" cy="23.5" r="22.5" fill="#FF3E79"/>
<g filter="url(#filter1_d)">
<circle cx="23.5" cy="23.5" r="22.5" fill="#FF3E79"/>
</g>
<path d="M15.3333 17.5H16.5C17.1188 17.5 17.7123 17.2542 18.1499 16.8166C18.5875 16.379 18.8333 15.7855 18.8333 15.1667C18.8333 14.8572 18.9562 14.5605 19.175 14.3417C19.3938 14.1229 19.6906 14 20 14H27C27.3094 14 27.6062 14.1229 27.825 14.3417C28.0437 14.5605 28.1667 14.8572 28.1667 15.1667C28.1667 15.7855 28.4125 16.379 28.8501 16.8166C29.2877 17.2542 29.8812 17.5 30.5 17.5H31.6667C32.2855 17.5 32.879 17.7458 33.3166 18.1834C33.7542 18.621 34 19.2145 34 19.8333V30.3333C34 30.9522 33.7542 31.5457 33.3166 31.9832C32.879 32.4208 32.2855 32.6667 31.6667 32.6667H15.3333C14.7145 32.6667 14.121 32.4208 13.6834 31.9832C13.2458 31.5457 13 30.9522 13 30.3333V19.8333C13 19.2145 13.2458 18.621 13.6834 18.1834C14.121 17.7458 14.7145 17.5 15.3333 17.5Z" stroke="white" stroke-width="1.5" stroke-linecap="round" stroke-linejoin="round"/>
<path d="M23.5 28C25.433 28 27 26.433 27 24.5C27 22.567 25.433 21 23.5 21C21.567 21 20 22.567 20 24.5C20 26.433 21.567 28 23.5 28Z" stroke="white" stroke-width="1.5" stroke-linecap="round" stroke-linejoin="round"/>
</g>
<defs>
<filter id="filter0_d" x="0" y="0" width="49" height="49" filterUnits="userSpaceOnUse" color-interpolation-filters="sRGB">
<feFlood flood-opacity="0" result="BackgroundImageFix"/>
<feColorMatrix in="SourceAlpha" type="matrix" values="0 0 0 0 0 0 0 0 0 0 0 0 0 0 0 0 0 0 127 0" result="hardAlpha"/>
<feOffset dx="1" dy="1"/>
<feGaussianBlur stdDeviation="1"/>
<feColorMatrix type="matrix" values="0 0 0 0 0 0 0 0 0 0 0 0 0 0 0 0 0 0 0.1 0"/>
<feBlend mode="normal" in2="BackgroundImageFix" result="effect1_dropShadow"/>
<feBlend mode="normal" in="SourceGraphic" in2="effect1_dropShadow" result="shape"/>
</filter>
<filter id="filter1_d" x="0" y="0" width="49" height="49" filterUnits="userSpaceOnUse" color-interpolation-filters="sRGB">
<feFlood flood-opacity="0" result="BackgroundImageFix"/>
<feColorMatrix in="SourceAlpha" type="matrix" values="0 0 0 0 0 0 0 0 0 0 0 0 0 0 0 0 0 0 127 0" result="hardAlpha"/>
<feOffset dx="1" dy="1"/>
<feGaussianBlur stdDeviation="1"/>
<feColorMatrix type="matrix" values="0 0 0 0 0 0 0 0 0 0 0 0 0 0 0 0 0 0 0.1 0"/>
<feBlend mode="normal" in2="BackgroundImageFix" result="effect1_dropShadow"/>
<feBlend mode="normal" in="SourceGraphic" in2="effect1_dropShadow" result="shape"/>
</filter>
</defs>
</svg>
