<svg width="37" height="42" viewBox="0 0 37 42" fill="none" xmlns="http://www.w3.org/2000/svg">
<path d="M31.6146 5.19531H5.37028C2.95664 5.19531 1 7.15195 1 9.5656V35.8099C1 38.2236 2.95664 40.1802 5.37028 40.1802H31.6146C34.0283 40.1802 35.9849 38.2236 35.9849 35.8099V9.5656C35.9849 7.15195 34.0283 5.19531 31.6146 5.19531Z" stroke="#FF3E79" stroke-width="2" stroke-linecap="round" stroke-linejoin="round"/>
<path d="M27.7578 1V9.75566" stroke="#FF3E79" stroke-width="2" stroke-linecap="round" stroke-linejoin="round"/>
<path d="M10.2695 1V9.75566" stroke="#FF3E79" stroke-width="2" stroke-linecap="round" stroke-linejoin="round"/>
<path d="M1 18.5039H36" stroke="#FF3E79" stroke-width="2" stroke-linecap="round" stroke-linejoin="round"/>
<path d="M8.25 26.3915V25.1836H9.45789V26.3915H8.25Z" fill="#FF3E79" stroke="#FF3E79" stroke-width="2"/>
<path d="M17.707 26.3915V25.1836H18.9149V26.3915H17.707Z" fill="#FF3E79" stroke="#FF3E79" stroke-width="2"/>
<path d="M27.1641 26.3915V25.1836H28.372V26.3915H27.1641Z" fill="#FF3E79" stroke="#FF3E79" stroke-width="2"/>
<path d="M8.25 33.3524V32.1445H9.45789V33.3524H8.25Z" fill="#FF3E79" stroke="#FF3E79" stroke-width="2"/>
<path d="M17.707 33.3524V32.1445H18.9149V33.3524H17.707Z" fill="#FF3E79" stroke="#FF3E79" stroke-width="2"/>
<path d="M27.1641 33.3524V32.1445H28.372V33.3524H27.1641Z" fill="#FF3E79" stroke="#FF3E79" stroke-width="2"/>
</svg>
