<svg width="36" height="36" viewBox="0 0 36 36" fill="none" xmlns="http://www.w3.org/2000/svg">
<path d="M1 5.16667C1 4.0616 1.43899 3.00179 2.22039 2.22039C3.00179 1.43899 4.0616 1 5.16667 1H26C26.5525 1 27.0824 1.21949 27.4731 1.61019C27.8638 2.0009 28.0833 2.5308 28.0833 3.08333V9.33333L32.25 17.6667V11.4167C32.25 10.8641 32.0305 10.3342 31.6398 9.94353C31.2491 9.55283 30.7192 9.33333 30.1667 9.33333H5.16667C4.0616 9.33333 3.00179 8.89435 2.22039 8.11295C1.43899 7.33154 1 6.27174 1 5.16667ZM1 5.16667V30.1667C1 31.2717 1.43899 32.3315 2.22039 33.1129C3.00179 33.8943 4.0616 34.3333 5.16667 34.3333H30.1667C30.7192 34.3333 31.2491 34.1138 31.6398 33.7231C32.0305 33.3324 32.25 32.8025 32.25 32.25V26" stroke="#FF3E79" stroke-width="1.5" stroke-linecap="round" stroke-linejoin="round"/>
<path d="M34.332 17.668V26.0013H25.9987C24.8936 26.0013 23.8338 25.5623 23.0524 24.7809C22.271 23.9995 21.832 22.9397 21.832 21.8346C21.832 20.7296 22.271 19.6698 23.0524 18.8884C23.8338 18.107 24.8936 17.668 25.9987 17.668H34.332Z" stroke="#FF3E79" stroke-width="1.5" stroke-linecap="round" stroke-linejoin="round"/>
</svg>
