<svg width="40" height="40" viewBox="0 0 40 40" fill="none" xmlns="http://www.w3.org/2000/svg">
<path d="M8.12502 39C12.0601 39 15.25 35.8101 15.25 31.875C15.25 27.94 12.0601 24.75 8.12502 24.75C4.18998 24.75 1 27.94 1 31.875C1 35.8101 4.18998 39 8.12502 39Z" stroke="#FF3E79" stroke-width="2" stroke-linecap="round" stroke-linejoin="round"/>
<path d="M31.875 39C35.8101 39 39 35.8101 39 31.875C39 27.94 35.8101 24.75 31.875 24.75C27.94 24.75 24.75 27.94 24.75 31.875C24.75 35.8101 27.94 39 31.875 39Z" stroke="#FF3E79" stroke-width="2" stroke-linecap="round" stroke-linejoin="round"/>
<path d="M13.2305 26.7688L34.2493 1" stroke="#FF3E79" stroke-width="2" stroke-linecap="round" stroke-linejoin="round"/>
<path d="M5.75 1L26.7688 26.7688" stroke="#FF3E79" stroke-width="2" stroke-linecap="round" stroke-linejoin="round"/>
</svg>
