<svg width="26" height="25" viewBox="0 0 26 25" fill="none" xmlns="http://www.w3.org/2000/svg">
<path d="M5.45152 24.1634C7.93376 24.1634 9.94601 22.2538 9.94601 19.8981C9.94601 17.5424 7.93376 15.6328 5.45152 15.6328C2.96928 15.6328 0.957031 17.5424 0.957031 19.8981C0.957031 22.2538 2.96928 24.1634 5.45152 24.1634Z" stroke="#54514C" stroke-opacity="0.75" stroke-width="1.5" stroke-linecap="round" stroke-linejoin="round"/>
<path d="M20.432 24.1634C22.9142 24.1634 24.9265 22.2538 24.9265 19.8981C24.9265 17.5424 22.9142 15.6328 20.432 15.6328C17.9498 15.6328 15.9375 17.5424 15.9375 19.8981C15.9375 22.2538 17.9498 24.1634 20.432 24.1634Z" stroke="#54514C" stroke-opacity="0.75" stroke-width="1.5" stroke-linecap="round" stroke-linejoin="round"/>
<path d="M8.67578 16.8402L21.9345 1.41406" stroke="#54514C" stroke-opacity="0.75" stroke-width="1.5" stroke-linecap="round" stroke-linejoin="round"/>
<path d="M3.95312 1.41406L17.2119 16.8402" stroke="#54514C" stroke-opacity="0.75" stroke-width="1.5" stroke-linecap="round" stroke-linejoin="round"/>
</svg>
