<svg width="32" height="32" viewBox="0 0 32 32" fill="none" xmlns="http://www.w3.org/2000/svg">
<path d="M16.0014 15.2646C18.9082 15.2646 21.2646 12.9082 21.2646 10.0014C21.2646 7.09468 18.9082 4.73828 16.0014 4.73828C13.0947 4.73828 10.7383 7.09468 10.7383 10.0014C10.7383 12.9082 13.0947 15.2646 16.0014 15.2646Z" stroke="#BDBDBD" stroke-width="2" stroke-linecap="round" stroke-linejoin="round"/>
<path d="M8.14063 28.4366V25.8051C8.14062 24.4086 8.6949 23.0692 9.68174 22.0811C10.6686 21.0929 12.0073 20.5369 13.4038 20.5352H18.6737C20.0702 20.5369 21.4089 21.0929 22.3957 22.0811C23.3826 23.0692 23.9368 24.4086 23.9368 25.8051V28.4366" stroke="#BDBDBD" stroke-width="2" stroke-linecap="round" stroke-linejoin="round"/>
<path d="M16 31C24.2843 31 31 24.2843 31 16C31 7.71573 24.2843 1 16 1C7.71572 1 1 7.71573 1 16C1 24.2843 7.71572 31 16 31Z" stroke="#BDBDBD" stroke-width="2" stroke-linecap="round" stroke-linejoin="round"/>
</svg>
