<svg width="44" height="44" viewBox="0 0 44 44" fill="none" xmlns="http://www.w3.org/2000/svg">
<circle cx="22" cy="22" r="22" fill="#FFB156"/>
<path d="M22.2622 11.1588C22.3371 10.9285 22.6629 10.9285 22.7378 11.1588L24.8176 17.56C25.0519 18.2811 25.7238 18.7693 26.482 18.7693L33.2126 18.7693C33.4548 18.7693 33.5555 19.0792 33.3596 19.2215L27.9144 23.1777C27.301 23.6233 27.0444 24.4132 27.2787 25.1342L29.3585 31.5355C29.4334 31.7658 29.1698 31.9573 28.9738 31.815L23.5286 27.8588L23.0878 28.4656L23.5286 27.8588C22.9153 27.4132 22.0847 27.4132 21.4714 27.8588L16.0262 31.815C15.8302 31.9573 15.5666 31.7658 15.6415 31.5355L17.7213 25.1342C17.9556 24.4132 17.699 23.6233 17.0856 23.1777L11.6404 19.2215C11.4445 19.0792 11.5452 18.7693 11.7874 18.7693L18.518 18.7693C19.2762 18.7693 19.9481 18.2811 20.1824 17.56L22.2622 11.1588Z" stroke="white" stroke-width="1.5"/>
</svg>
