<svg width="37" height="37" viewBox="0 0 37 37" fill="none" xmlns="http://www.w3.org/2000/svg">
<path d="M13.8737 16.9583C17.2795 16.9583 20.0404 14.1974 20.0404 10.7917C20.0404 7.38591 17.2795 4.625 13.8737 4.625C10.4679 4.625 7.70703 7.38591 7.70703 10.7917C7.70703 14.1974 10.4679 16.9583 13.8737 16.9583Z" stroke="#FF3E79" stroke-width="2" stroke-linecap="round" stroke-linejoin="round"/>
<path d="M4.625 32.375V29.2917C4.625 27.6562 5.2747 26.0877 6.43117 24.9312C7.58765 23.7747 9.15616 23.125 10.7917 23.125H16.9583C18.5938 23.125 20.1624 23.7747 21.3188 24.9312C22.4753 26.0877 23.125 27.6562 23.125 29.2917V32.375" stroke="#FF3E79" stroke-width="2" stroke-linecap="round" stroke-linejoin="round"/>
<path d="M24.668 4.82422C25.9944 5.16385 27.1702 5.9353 28.0097 7.01695C28.8493 8.09859 29.3051 9.42891 29.3051 10.7982C29.3051 12.1674 28.8493 13.4978 28.0097 14.5794C27.1702 15.6611 25.9944 16.4325 24.668 16.7721" stroke="#FF3E79" stroke-width="2" stroke-linecap="round" stroke-linejoin="round"/>
<path d="M32.375 32.3742V29.2909C32.3672 27.9298 31.9093 26.6096 31.0727 25.536C30.2361 24.4624 29.0679 23.6957 27.75 23.3555" stroke="#FF3E79" stroke-width="2" stroke-linecap="round" stroke-linejoin="round"/>
</svg>
