<svg width="27" height="35" viewBox="0 0 27 35" fill="none" xmlns="http://www.w3.org/2000/svg">
<path d="M18.8436 13.8635C21.1641 11.7478 24.3022 8.88651 24.5883 2.05078H26.6602V0H0V2.05078H2.0719C2.35792 8.88651 5.49603 11.7478 7.81655 13.8635C9.37316 15.2827 10.2539 16.1513 10.2539 17.5C10.2539 18.8487 9.37316 19.7173 7.81655 21.1365C5.49603 23.2522 2.35792 26.1135 2.0719 32.9492H0V35H26.6602V32.9492H24.5883C24.3022 26.1135 21.1641 23.2522 18.8436 21.1365C17.287 19.7173 16.4062 18.8487 16.4062 17.5C16.4062 16.1513 17.287 15.2827 18.8436 13.8635ZM12.3047 25.1862C11.988 25.2515 11.6751 25.3466 11.3697 25.473L5.08908 28.0719C6.11475 25.464 7.76672 23.9572 9.19823 22.652C10.7958 21.1955 12.3047 19.8198 12.3047 17.5V25.1862ZM17.4619 22.652C18.8934 23.9572 20.5453 25.464 21.5711 28.0718L15.2904 25.4729C14.9851 25.3466 14.6722 25.2515 14.3555 25.1861V17.5C14.3555 19.8198 15.8644 21.1955 17.4619 22.652ZM5.05306 6.83594C4.55725 5.54401 4.21483 3.98412 4.12522 2.05078H22.5349C22.4453 3.98412 22.1029 5.54401 21.607 6.83594H5.05306Z" fill="#FFAA00"/>
</svg>
