<svg width="25" height="24" viewBox="0 0 25 24" fill="none" xmlns="http://www.w3.org/2000/svg">
<path d="M20.5178 7.62109C20.5175 7.62109 20.5172 7.62109 20.517 7.62109H0.345735C0.155016 7.62089 0.00020191 7.77436 1.97403e-07 7.96391C1.97403e-07 7.96416 1.97403e-07 7.96446 1.97403e-07 7.96471V17.5877C-0.000201515 17.7772 0.154209 17.9311 0.344928 17.9313C0.34518 17.9313 0.345483 17.9313 0.345735 17.9313H14.0622C14.2531 17.9313 14.4079 17.7774 14.4079 17.5877C14.4079 17.3979 14.2531 17.2441 14.0622 17.2441H0.69147V8.30834H20.1712V9.16759C20.171 9.35714 20.3254 9.51101 20.5162 9.51121C20.5164 9.51121 20.5167 9.51121 20.517 9.51121C20.7077 9.51141 20.8625 9.35794 20.8627 9.16839C20.8627 9.16814 20.8627 9.16784 20.8627 9.16759V7.96471C20.8629 7.77516 20.7085 7.62134 20.5178 7.62109Z" fill="#54514C" fill-opacity="0.75"/>
<path d="M18.1743 6.02318L2.03727 2.41457C1.94771 2.39467 1.85386 2.41081 1.77625 2.45947C1.69874 2.50854 1.64393 2.58607 1.62376 2.67519L0.816908 6.2838C0.775456 6.46915 0.893054 6.65278 1.07954 6.69398C1.26602 6.73518 1.45079 6.6183 1.49224 6.43296L2.22365 3.16075L18.0226 6.69358C18.0476 6.69935 18.0732 6.7022 18.0988 6.702C18.2897 6.70165 18.4443 6.54753 18.4439 6.35778C18.4436 6.19735 18.3317 6.05852 18.1743 6.02318Z" fill="#54514C" fill-opacity="0.75"/>
<path d="M16.2129 4.03618L6.53072 0.0266104C6.36244 -0.0431061 6.16854 0.028515 6.08695 0.190602L5.2801 1.79443C5.18898 1.96193 5.25171 2.17118 5.42029 2.26175C5.58882 2.35231 5.79936 2.28996 5.89048 2.12241C5.89406 2.11585 5.89744 2.10913 5.90057 2.10232V2.10312L6.56259 0.786375L15.9458 4.67205C16.1225 4.74533 16.3256 4.66243 16.3993 4.48681C16.473 4.31129 16.3896 4.10951 16.2129 4.03618Z" fill="#54514C" fill-opacity="0.75"/>
<path d="M16.4579 9.22266H13.2559C13.065 9.22266 12.9102 9.37652 12.9102 9.56628C12.9102 9.75603 13.065 9.9099 13.2559 9.9099H16.4579C16.6488 9.9099 16.8036 9.75603 16.8036 9.56628C16.8036 9.37652 16.6488 9.22266 16.4579 9.22266Z" fill="#54514C" fill-opacity="0.75"/>
<path d="M10.0267 9.24609C8.06601 9.24609 6.47656 10.8258 6.47656 12.7745C6.47858 14.7224 8.06686 16.3009 10.0267 16.3029C11.9874 16.3029 13.5768 14.7232 13.5768 12.7745C13.5768 10.8258 11.9874 9.24609 10.0267 9.24609ZM10.0267 15.6614C8.42248 15.6614 7.12204 14.3689 7.12204 12.7745C7.12381 11.1809 8.42324 9.88938 10.0267 9.88762C11.6309 9.88762 12.9314 11.1801 12.9314 12.7745C12.9314 14.3689 11.6309 15.6614 10.0267 15.6614Z" fill="#54514C" fill-opacity="0.75"/>
<path d="M19.7111 10.3711C17.573 10.3711 15.2734 10.8731 15.2734 11.9749V21.5979C15.2734 22.6997 17.573 23.2017 19.7111 23.2017C21.8493 23.2017 24.1488 22.6997 24.1488 21.5979V11.9749C24.1488 10.8731 21.8493 10.3711 19.7111 10.3711ZM23.3419 21.5919C23.281 21.8144 22.0711 22.3998 19.7111 22.3998C17.3511 22.3998 16.1412 21.8144 16.0803 21.5979V20.9676C16.9388 21.3974 18.3568 21.5979 19.7111 21.5979C21.0654 21.5979 22.4838 21.3954 23.3419 20.9672V21.5919ZM23.3419 19.9881C23.281 20.2106 22.0711 20.796 19.7111 20.796C17.3511 20.796 16.1412 20.2106 16.0803 19.9941V19.3638C16.9388 19.7936 18.3568 19.9941 19.7111 19.9941C21.0654 19.9941 22.4838 19.7916 23.3419 19.3634V19.9881ZM23.3419 18.3842C23.281 18.6068 22.0711 19.1922 19.7111 19.1922C17.3511 19.1922 16.1412 18.6068 16.0803 18.3902V17.7599C16.9388 18.1898 18.3568 18.3902 19.7111 18.3902C21.0654 18.3902 22.4838 18.1878 23.3419 17.7595V18.3842ZM23.3419 16.7804C23.281 17.0029 22.0711 17.5883 19.7111 17.5883C17.3511 17.5883 16.1412 17.0029 16.0803 16.7864V16.1561C16.9388 16.5859 18.3568 16.7864 19.7111 16.7864C21.0654 16.7864 22.4838 16.5839 23.3419 16.1557V16.7804ZM23.3419 15.1766C23.281 15.3991 22.0711 15.9845 19.7111 15.9845C17.3511 15.9845 16.1412 15.3991 16.0803 15.1826V14.5523C16.9388 14.9801 18.3568 15.1826 19.7111 15.1826C21.0654 15.1826 22.4838 14.9801 23.3419 14.5519V15.1766ZM23.3419 13.5727C23.281 13.7953 22.0711 14.3807 19.7111 14.3807C17.3511 14.3807 16.1412 13.7953 16.0803 13.5788V12.9484C16.9388 13.3763 18.3568 13.5788 19.7111 13.5788C21.0654 13.5788 22.4838 13.3763 23.3419 12.948V13.5727ZM19.7111 12.7768C17.3547 12.7768 16.1452 12.193 16.0803 11.9821V11.9797C16.1452 11.7564 17.3547 11.173 19.7111 11.173C22.051 11.173 23.2612 11.748 23.3419 11.9749C23.2612 12.2019 22.051 12.7768 19.7111 12.7768Z" fill="#54514C" fill-opacity="0.75"/>
<path d="M6.80052 15.6376H3.75103L2.30516 14.0658V11.4596L3.90191 9.9099H6.80052C6.99144 9.9099 7.14625 9.75603 7.14625 9.56628C7.14625 9.37652 6.99144 9.22266 6.80052 9.22266H3.76152C3.67115 9.22246 3.58426 9.25744 3.51946 9.32009L1.71737 11.0671C1.65004 11.1452 1.61313 11.2448 1.61328 11.3477V14.1993C1.61328 14.2851 1.64551 14.3677 1.70365 14.4311L3.34276 16.2129C3.40827 16.2842 3.50096 16.3249 3.59813 16.3248H6.80052C6.99144 16.3248 7.14625 16.1709 7.14625 15.9812C7.14625 15.7914 6.99149 15.6376 6.80052 15.6376Z" fill="#54514C" fill-opacity="0.75"/>
<path d="M10.2284 12.376H9.82497C9.6995 12.376 9.62326 12.3062 9.62326 12.2758C9.62326 12.2453 9.6995 12.1755 9.82497 12.1755H10.8335C11.0563 12.1755 11.237 11.996 11.237 11.7746C11.237 11.5531 11.0563 11.3736 10.8335 11.3736H10.4301C10.4301 11.1522 10.2495 10.9727 10.0267 10.9727C9.80389 10.9727 9.62326 11.1522 9.62326 11.3736V11.3917C9.17581 11.4545 8.83683 11.8251 8.81641 12.2738C8.8453 12.7995 9.29583 13.2034 9.82497 13.1779H10.2284C10.3539 13.1779 10.4301 13.2477 10.4301 13.2782C10.4301 13.3086 10.3539 13.3784 10.2284 13.3784H9.21983C8.99704 13.3784 8.81641 13.5579 8.81641 13.7794C8.81641 14.0008 8.99704 14.1803 9.21983 14.1803H9.62326C9.62326 14.4017 9.80389 14.5813 10.0267 14.5813C10.2495 14.5813 10.4301 14.4017 10.4301 14.1803V14.1623C10.8776 14.0995 11.2165 13.7288 11.237 13.2802C11.2081 12.7545 10.7575 12.3505 10.2284 12.376Z" fill="#54514C" fill-opacity="0.75"/>
</svg>
