<svg width="50" height="50" viewBox="0 0 50 50" fill="none" xmlns="http://www.w3.org/2000/svg">
<rect x="0.5" y="0.5" width="49" height="49" rx="9.5" fill="white" stroke="#FF3E79"/>
<path d="M33.4054 16.3102C31.1607 14.0133 28.1714 12.75 24.9946 12.75C18.4375 12.75 13.1018 18.1969 13.1018 24.8906C13.1018 27.0289 13.6482 29.118 14.6875 30.9609L13 37.25L19.3054 35.5602C21.0411 36.5281 22.9964 37.0367 24.9893 37.0367H24.9946C31.5464 37.0367 37 31.5898 37 24.8961C37 21.6531 35.65 18.607 33.4054 16.3102ZM24.9946 34.9914C23.2161 34.9914 21.475 34.5047 19.9589 33.5859L19.6 33.3672L15.8607 34.368L16.8571 30.6438L16.6214 30.2609C15.6304 28.6531 15.1107 26.7992 15.1107 24.8906C15.1107 19.3289 19.5464 14.8008 25 14.8008C27.6411 14.8008 30.1214 15.8508 31.9857 17.7594C33.85 19.668 34.9964 22.2 34.9911 24.8961C34.9911 30.4633 30.4429 34.9914 24.9946 34.9914ZM30.4161 27.4336C30.1214 27.2805 28.6589 26.5477 28.3857 26.4492C28.1125 26.3453 27.9143 26.2961 27.7161 26.6023C27.5179 26.9086 26.95 27.5867 26.7732 27.7945C26.6018 27.9969 26.425 28.0242 26.1304 27.8711C24.3839 26.9797 23.2375 26.2797 22.0857 24.2617C21.7804 23.7258 22.3911 23.7641 22.9589 22.6047C23.0554 22.4023 23.0071 22.2273 22.9321 22.0742C22.8571 21.9211 22.2625 20.4281 22.0161 19.8211C21.775 19.2305 21.5286 19.3125 21.3464 19.3016C21.175 19.2906 20.9768 19.2906 20.7786 19.2906C20.5804 19.2906 20.2589 19.3672 19.9857 19.668C19.7125 19.9742 18.9464 20.707 18.9464 22.2C18.9464 23.693 20.0125 25.1367 20.1571 25.3391C20.3071 25.5414 22.2518 28.6039 25.2357 29.9219C27.1214 30.7531 27.8607 30.8242 28.8036 30.682C29.3768 30.5945 30.5607 29.9492 30.8071 29.2383C31.0536 28.5273 31.0536 27.9203 30.9786 27.7945C30.9089 27.6578 30.7107 27.5813 30.4161 27.4336Z" fill="#FF3E79"/>
</svg>
